<?xml version="1.0" encoding="utf-8"?>
<!-- Generator: Adobe Illustrator 19.0.0, SVG Export Plug-In . SVG Version: 6.00 Build 0)  -->
<svg version="1.1" id="图层_1" xmlns="http://www.w3.org/2000/svg" xmlns:xlink="http://www.w3.org/1999/xlink" x="0px" y="0px"
	 viewBox="0 0 27.6 27.6" style="enable-background:new 0 0 27.6 27.6;" xml:space="preserve">
<g id="zsR6pY.tif">
	<g id="_x30_c2Xyq.tif">
		<g id="XMLID_28_">
			<path id="XMLID_33_" d="M25,6.5L14.7,0.4c-1.2-0.7-2.7-0.3-3.4,0.9L1.7,17.7c-0.7,1.2-0.3,2.7,0.9,3.4l10.4,6.1
				c1.2,0.7,2.7,0.3,3.4-0.9l9.6-16.4C26.6,8.7,26.2,7.2,25,6.5z M17.5,22.3l-13-7.6l6.1-10.4l13,7.6L17.5,22.3z M14.2,1.3l10.4,6.1
				c0.7,0.4,1,1.3,0.5,2l-1,1.7l-13-7.6l1-1.7C12.5,1.1,13.5,0.9,14.2,1.3z M13.4,26.3L3.1,20.3c-0.7-0.4-1-1.3-0.5-2l1.5-2.6
				l13,7.6l-1.5,2.6C15.1,26.5,14.2,26.7,13.4,26.3z"/>
			<rect id="XMLID_32_" x="16.4" y="5.3" transform="matrix(0.8635 0.5044 -0.5044 0.8635 5.3563 -8.2508)" width="3" height="1"/>
			
				<rect id="XMLID_31_" x="8.5" y="20.1" transform="matrix(-0.8635 -0.5044 0.5044 -0.8635 7.0916 44.1845)" width="2" height="2"/>
			
				<rect id="XMLID_30_" x="16.4" y="18.6" transform="matrix(0.5044 -0.8635 0.8635 0.5044 -5.1435 29.2167)" width="13" height="1"/>
			<rect id="XMLID_29_" x="4.2" y="2" transform="matrix(-0.8635 -0.5044 0.5044 -0.8635 4.5583 18.2277)" width="1" height="13"/>
		</g>
	</g>
</g>
</svg>
