<?xml version="1.0" encoding="utf-8"?>
<!-- Generator: Adobe Illustrator 19.0.0, SVG Export Plug-In . SVG Version: 6.00 Build 0)  -->
<svg version="1.1" id="图层_1" xmlns="http://www.w3.org/2000/svg" xmlns:xlink="http://www.w3.org/1999/xlink" x="0px" y="0px"
	 viewBox="0 0 50 50" style="enable-background:new 0 0 50 50;" xml:space="preserve">
<g id="XMLID_10_">
	<path id="XMLID_8_" d="M19.9,4.7l-0.3-2.3c-9.9,1.3-17.9,9-19.5,18.9l2.3,0.4C3.8,12.8,11,5.8,19.9,4.7z"/>
	<path id="XMLID_7_" d="M2.4,28.3l-2.3,0.4c1.6,10,9.9,17.8,20,18.9l0.3-2.3C11.2,44.3,3.9,37.3,2.4,28.3z"/>
	<path id="XMLID_6_" d="M43,25h2.3c0-10.9-7.7-20.2-18.3-22.3l-0.5,2.3C36.1,6.8,43,15.2,43,25z"/>
	<path id="XMLID_5_" d="M18.8,13.9L18,11.6c-4.6,1.5-8,5.3-9.1,9.9l2.3,0.6C12.1,18.3,15,15.1,18.8,13.9z"/>
	<path id="XMLID_4_" d="M19.5,38.7l0.5-2.3c-4.6-1-8.2-4.7-9-9.4l-2.3,0.4C9.7,33.1,14,37.5,19.5,38.7z"/>
	<path id="XMLID_3_" d="M25.7,39l-0.5-2.3c4.6-1,8.2-4.7,9-9.4l2.3,0.4C35.5,33.3,31.3,37.7,25.7,39z"/>
	<path id="XMLID_2_" d="M34.2,23.8l2.3-0.2c-0.6-5.7-4.4-10.4-9.9-12.1L26,13.7C30.5,15.1,33.8,19.1,34.2,23.8z"/>
	<polygon id="XMLID_1_" points="42.6,37.4 42.6,30.4 40.2,30.4 40.2,37.4 33.2,37.4 33.2,39.8 40.2,39.8 40.2,46.8 42.6,46.8 
		42.6,39.8 49.6,39.8 49.6,37.4 	"/>
</g>
</svg>
