<svg xmlns="http://www.w3.org/2000/svg" xmlns:xlink="http://www.w3.org/1999/xlink" preserveAspectRatio="xMidYMid" width="50" height="50" viewBox="0 0 50 50">
  <defs>
    <style>
      .cls-1 {
        fill: #5671a8;
        filter: url(#color-overlay-1);
        fill-rule: evenodd;
      }
    </style>

    <filter id="color-overlay-1" filterUnits="userSpaceOnUse">
      <feFlood/>
      <feComposite operator="in" in2="SourceGraphic"/>
      <feBlend in2="SourceGraphic" result="solidFill"/>
    </filter>
  </defs>
  <path d="M46.000,48.000 L31.300,48.000 C29.091,48.000 27.300,46.209 27.300,44.000 L27.300,31.300 C27.300,29.091 29.091,27.300 31.300,27.300 L44.000,27.300 C46.209,27.300 48.000,29.091 48.000,31.300 L48.000,46.000 C48.000,47.105 47.105,48.000 46.000,48.000 ZM44.000,22.700 L31.300,22.700 C29.091,22.700 27.300,20.909 27.300,18.700 L27.300,6.000 C27.300,3.791 29.091,2.000 31.300,2.000 L46.000,2.000 C47.105,2.000 48.000,2.895 48.000,4.000 L48.000,18.700 C48.000,20.909 46.209,22.700 44.000,22.700 ZM18.700,48.000 L4.000,48.000 C2.895,48.000 2.000,47.105 2.000,46.000 L2.000,31.300 C2.000,29.091 3.791,27.300 6.000,27.300 L18.700,27.300 C20.909,27.300 22.700,29.091 22.700,31.300 L22.700,44.000 C22.700,46.209 20.909,48.000 18.700,48.000 ZM18.700,22.700 L6.000,22.700 C3.791,22.700 2.000,20.909 2.000,18.700 L2.000,4.000 C2.000,2.895 2.895,2.000 4.000,2.000 L18.700,2.000 C20.909,2.000 22.700,3.791 22.700,6.000 L22.700,18.700 C22.700,20.909 20.909,22.700 18.700,22.700 Z" class="cls-1"/>
</svg>
