<svg xmlns="http://www.w3.org/2000/svg" xmlns:xlink="http://www.w3.org/1999/xlink" preserveAspectRatio="xMidYMid" width="50" height="50" viewBox="0 0 50 50">
  <defs>
    <style>
      .cls-1 {
        fill: #939599;
        fill-rule: evenodd;
      }
    </style>
  </defs>
  <path d="M47.000,49.000 L31.400,49.000 C29.191,49.000 27.400,47.209 27.400,45.000 L27.400,31.400 C27.400,29.191 29.191,27.400 31.400,27.400 L45.000,27.400 C47.209,27.400 49.000,29.191 49.000,31.400 L49.000,47.000 C49.000,48.105 48.105,49.000 47.000,49.000 ZM45.000,22.600 L31.400,22.600 C29.191,22.600 27.400,20.809 27.400,18.600 L27.400,5.000 C27.400,2.791 29.191,1.000 31.400,1.000 L47.000,1.000 C48.105,1.000 49.000,1.895 49.000,3.000 L49.000,18.600 C49.000,20.809 47.209,22.600 45.000,22.600 ZM18.600,49.000 L3.000,49.000 C1.895,49.000 1.000,48.105 1.000,47.000 L1.000,31.400 C1.000,29.191 2.791,27.400 5.000,27.400 L18.600,27.400 C20.809,27.400 22.600,29.191 22.600,31.400 L22.600,45.000 C22.600,47.209 20.809,49.000 18.600,49.000 ZM18.600,22.600 L5.000,22.600 C2.791,22.600 1.000,20.809 1.000,18.600 L1.000,3.000 C1.000,1.895 1.895,1.000 3.000,1.000 L18.600,1.000 C20.809,1.000 22.600,2.791 22.600,5.000 L22.600,18.600 C22.600,20.809 20.809,22.600 18.600,22.600 Z" class="cls-1"/>
</svg>
