<svg xmlns="http://www.w3.org/2000/svg" xmlns:xlink="http://www.w3.org/1999/xlink" preserveAspectRatio="xMidYMid" width="50" height="50" viewBox="0 0 50 50">
  <defs>
    <style>
      .cls-1 {
        fill: #5671a8;
        filter: url(#color-overlay-1);
        fill-rule: evenodd;
      }
    </style>

    <filter id="color-overlay-1" filterUnits="userSpaceOnUse">
      <feFlood/>
      <feComposite operator="in" in2="SourceGraphic"/>
      <feBlend in2="SourceGraphic" result="solidFill"/>
    </filter>
  </defs>
  <path d="M49.000,20.636 L49.000,29.364 L43.901,30.291 C43.474,31.814 42.851,33.252 42.091,34.602 L45.056,38.885 L38.885,45.056 L34.598,42.088 C33.250,42.847 31.814,43.469 30.292,43.894 L29.364,49.000 L20.636,49.000 L19.708,43.894 C18.121,43.450 16.621,42.803 15.224,41.999 L11.398,44.647 L5.353,38.602 L7.999,34.780 C7.192,33.381 6.544,31.880 6.099,30.291 L1.000,29.364 L1.000,20.636 L6.099,19.709 C6.526,18.186 7.149,16.748 7.909,15.398 L4.944,11.115 L11.115,4.944 L15.402,7.912 C16.750,7.153 18.186,6.531 19.708,6.106 L20.636,1.000 L29.364,1.000 L30.292,6.106 C31.879,6.550 33.379,7.197 34.776,8.001 L38.602,5.353 L44.647,11.398 L42.001,15.220 C42.808,16.619 43.456,18.121 43.901,19.709 L49.000,20.636 ZM25.000,18.455 C21.385,18.455 18.455,21.385 18.455,25.000 C18.455,28.615 21.385,31.545 25.000,31.545 C28.615,31.545 31.545,28.615 31.545,25.000 C31.545,21.385 28.615,18.455 25.000,18.455 Z" class="cls-1"/>
</svg>
