<?xml version="1.0" encoding="utf-8"?>
<!-- Generator: Adobe Illustrator 19.0.0, SVG Export Plug-In . SVG Version: 6.00 Build 0)  -->
<svg version="1.1" id="图层_1" xmlns="http://www.w3.org/2000/svg" xmlns:xlink="http://www.w3.org/1999/xlink" x="0px" y="0px"
	 viewBox="4.9 3.4 44.2 44.2" style="enable-background:new 4.9 3.4 44.2 44.2;" xml:space="preserve">
<g id="XMLID_2_">
	<path id="XMLID_4_" d="M34.2,27.9c-1.4,2.3-3.9,3.7-6.8,3.7c-3.3,0-6.1-2-7.4-4.8c-1.2,2.8-4.1,4.8-7.4,4.8c-1.7,0-3.3-0.5-4.6-1.5
		v10c0,2.5,2,4.6,4.6,4.6h28.9c2.5,0,4.6-2,4.6-4.6V29.8c-1.4,1.1-3.1,1.8-5,1.8C38.1,31.6,35.6,30.1,34.2,27.9z"/>
	<path id="XMLID_3_" d="M48.2,15.2l-1.9-6.1c-0.4-1.6-1.9-2.7-3.5-2.7H11.1C9.4,6.5,8,7.6,7.6,9.3l-2,6.7v0.1
		C5.2,16.9,5,17.9,5,18.8c0,4.4,3.6,8,8,8c3,0,5.6-1.6,7-4.1c1.4,2.4,4,4.1,7,4.1s5.6-1.6,7-4.1c1.4,2.4,4,4.1,7,4.1
		c4.4,0,8-3.6,8-8C49,17.5,48.7,16.3,48.2,15.2z"/>
</g>
</svg>
