<?xml version="1.0" encoding="utf-8"?>
<!-- Generator: Adobe Illustrator 19.0.0, SVG Export Plug-In . SVG Version: 6.00 Build 0)  -->
<svg version="1.1" id="图层_1" xmlns="http://www.w3.org/2000/svg" xmlns:xlink="http://www.w3.org/1999/xlink" x="0px" y="0px"
	 viewBox="0 0 21.8 21.8" style="enable-background:new 0 0 21.8 21.8;" xml:space="preserve">
<path id="XMLID_29_" d="M18,4.2V0H4v4.2H0v0.5c0,0.3,0,6.2,4.2,6.8c0.6,3,3.2,5.2,6.3,5.5v3.5h-4v1h9v-1h-4V17
	c3.2-0.2,5.7-2.5,6.4-5.5c3.8-0.8,3.9-6.5,3.9-6.8V4.2H18z M1,5.2h3v4.9c0,0.1,0,0.3,0,0.4C1.6,9.9,1.1,6.5,1,5.2z M17,10.1
	c0,3.3-2.7,6-6,6c-3.3,0-6-2.7-6-6V1h12V10.1z M18,10.4c0-0.1,0-0.2,0-0.3V5.2h2.7C20.7,6.4,20.2,9.6,18,10.4z"/>
</svg>
