<?xml version="1.0" encoding="utf-8"?>
<!-- Generator: Adobe Illustrator 19.0.0, SVG Export Plug-In . SVG Version: 6.00 Build 0)  -->
<svg version="1.1" id="图层_1" xmlns="http://www.w3.org/2000/svg" xmlns:xlink="http://www.w3.org/1999/xlink" x="0px" y="0px"
	 viewBox="-7 15.7 20.1 20.1" style="enable-background:new -7 15.7 20.1 20.1;" xml:space="preserve">
<style type="text/css">
	.st0{fill:#040000;}
</style>
<g id="XMLID_56_">
	<path id="XMLID_58_" class="st0" d="M11,23.9h-0.2c-1-4.9-2.2-5.5-2.6-5.5c-0.2,0-5.8-1-10.2,0c-0.9,0.2-1.9,3-2.7,5.5h-0.2
		c-1.1,0-2.1,0.9-2.1,2v3.9c0,0.8,0.4,1.4,1,1.8c0,0.2,0,0.3,0,0.4v0.8c0,0.6,0.5,1.1,1.1,1.1h1.7c0.6,0,1.1-0.5,1.1-1.1V32v-0.1
		H8.3V32v0.8c0,0.6,0.5,1.1,1.1,1.1H11c0.6,0,1.1-0.5,1.1-1.1V32c0-0.1,0-0.2-0.1-0.4c0.6-0.4,1.1-1,1.1-1.8v-3.9
		C13.1,24.8,12.1,23.9,11,23.9z M10.4,25c0.7,0,1.2,0.5,1.2,1.2c0,0.7-0.5,1.2-1.2,1.2s-1.2-0.5-1.2-1.2C9.2,25.5,9.7,25,10.4,25z
		 M-1.7,19.3c3.9-0.9,9-0.1,9.7,0c0.1,0.1,0.9,0.7,1.8,4.5H-3.6C-2.9,21.7-2.1,19.6-1.7,19.3z M-4.3,25c0.7,0,1.2,0.5,1.2,1.2
		c0,0.7-0.5,1.2-1.2,1.2s-1.2-0.5-1.2-1.2C-5.5,25.5-5,25-4.3,25z M-3.1,32v0.8c0,0.1,0,0.1-0.1,0.1h-1.7c-0.1,0-0.1,0-0.1-0.1V32
		c0-0.1,0-0.1,0.1-0.1l0,0L-3.1,32C-3.2,31.9-3.1,32-3.1,32z M11.1,32.8C11.1,32.9,11,32.9,11.1,32.8l-1.8,0.1c-0.1,0-0.1,0-0.1-0.1
		V32c0-0.1,0-0.1,0.1-0.1H11c0.1,0,0.1,0,0.1,0.1V32.8z M11,30.9L11,30.9H9.3H-3.2h-1.7c-0.6,0-1.1-0.5-1.1-1.1v-2.2
		c0.4,0.5,1,0.8,1.6,0.8c1.2,0,2.2-1,2.2-2.2c0-0.5-0.2-1-0.5-1.3H8.6c-0.3,0.4-0.5,0.8-0.5,1.3c0,1.2,1,2.2,2.2,2.2
		c0.7,0,1.3-0.3,1.7-0.8v2.3C12.1,30.4,11.6,30.9,11,30.9z"/>
	<rect id="XMLID_57_" x="-0.9" y="27" class="st0" width="8" height="1"/>
</g>
</svg>
