<?xml version="1.0" encoding="utf-8"?>
<!-- Generator: Adobe Illustrator 19.0.0, SVG Export Plug-In . SVG Version: 6.00 Build 0)  -->
<svg version="1.1" id="图层_1" xmlns="http://www.w3.org/2000/svg" xmlns:xlink="http://www.w3.org/1999/xlink" x="0px" y="0px"
	 viewBox="9.4 14.9 36.1 36.1" style="enable-background:new 9.4 14.9 36.1 36.1;" xml:space="preserve">
<path id="XMLID_56_" d="M40.7,30.3h-6.3l-3.5-4c-0.8-0.9-2-1.5-3.2-1.5h-11c-1.1,0-2.2,1.1-2.2,2.2v3.3h-0.7c-2.3,0-4.4,2.4-4.4,4.7
	c0,2.1,1.6,4,3.6,4.4c0.7,1.6,2.2,2.6,4,2.6s3.3-1.1,4-2.6h12.1c0.7,1.5,2.2,2.6,4,2.6s3.3-1.1,4-2.6l0,0c2.3,0,4.4-2.4,4.4-4.8
	C45.4,32.4,43,30.3,40.7,30.3L40.7,30.3z M17,40.3c-1.4,0-2.5-1.2-2.5-2.6c0-1.4,0.9-2.6,2.5-2.6l0,0c1.4,0,2.5,1.2,2.5,2.6
	C19.6,39.1,18.5,40.3,17,40.3L17,40.3z M28.6,34.7h-2.1c-0.4,0-0.7-0.3-0.7-0.7s0.3-0.7,0.7-0.7h2.1c0.4,0,0.7,0.3,0.7,0.7
	S29,34.7,28.6,34.7L28.6,34.7z M16.3,30.3V27c0-0.3,0.4-0.4,0.7-0.4h10.9c0.8,0,0.9,0.1,1.5,0.7l2.6,2.9L16.3,30.3L16.3,30.3z
	 M37.1,40.3c-1.4,0-2.5-1.2-2.5-2.6c0-1.4,0.9-2.6,2.5-2.6l0,0c1.4,0,2.5,1.2,2.5,2.6C39.6,39.1,38.5,40.3,37.1,40.3L37.1,40.3z"/>
</svg>
