<?xml version="1.0" encoding="utf-8"?>
<!-- Generator: Adobe Illustrator 19.0.0, SVG Export Plug-In . SVG Version: 6.00 Build 0)  -->
<svg version="1.1" id="图层_1" xmlns="http://www.w3.org/2000/svg" xmlns:xlink="http://www.w3.org/1999/xlink" x="0px" y="0px"
	 viewBox="1 -1.1 44.4 44.4" style="enable-background:new 1 -1.1 44.4 44.4;" xml:space="preserve">
<path id="XMLID_2_" d="M23.1-1.1C10.9-1.1,1,8.8,1,21s9.9,22.2,22.1,22.2S45.3,33.3,45.3,21S35.4-1.1,23.1-1.1z M36.3,16.5L22.7,30
	c-0.4,0.4-0.9,0.6-1.4,0.6s-1-0.2-1.4-0.6l-9.1-8.8c-0.8-0.8-0.8-2,0-2.8s2-0.8,2.8,0l7.6,7.4l12.2-12.1c0.8-0.8,2.1-0.8,2.8,0
	C37,14.5,37,15.8,36.3,16.5z"/>
</svg>
