<?xml version="1.0" encoding="utf-8"?>
<!-- Generator: Adobe Illustrator 19.0.0, SVG Export Plug-In . SVG Version: 6.00 Build 0)  -->
<svg version="1.1" id="图层_1" xmlns="http://www.w3.org/2000/svg" xmlns:xlink="http://www.w3.org/1999/xlink" x="0px" y="0px"
	 viewBox="0 0 18.2 18.2" style="enable-background:new 0 0 18.2 18.2;" xml:space="preserve">
<style type="text/css">
	.st0{fill:#040000;}
</style>
<path id="XMLID_173_" class="st0" d="M4.1,6.2v1h-2v-2h12v-1v-1v-1h-14v1v2h1v11h1h2v1h1h13v-1v-1v-1h-14v1h-2v-3h2v1h1h13v-1v-1v-1
	h-14v1h-2v-3h2v1h1h13v-1v-1v-1H4.1z M1.1,3.2h12v1h-12V3.2z M5.1,15.2h12v1h-12V15.2z M5.1,11.2h12v1h-12V11.2z M17.1,8.2h-12v-1
	h12V8.2z"/>
</svg>
