<?xml version="1.0" encoding="utf-8"?>
<!-- Generator: Adobe Illustrator 19.0.0, SVG Export Plug-In . SVG Version: 6.00 Build 0)  -->
<svg version="1.1" id="图层_1" xmlns="http://www.w3.org/2000/svg" xmlns:xlink="http://www.w3.org/1999/xlink" x="0px" y="0px"
	 viewBox="-5.2 17.5 17.2 17.2" style="enable-background:new -5.2 17.5 17.2 17.2;" xml:space="preserve">
<style type="text/css">
	.st0{fill:#040000;}
</style>
<g id="XMLID_56_">
	<path id="XMLID_59_" class="st0" d="M1.1,33c-0.9,0.9-2.3,1-3.3,0.1l-1-0.9c-0.9-0.9-1-2.3-0.1-3.3l3.5-3.7l-0.7-0.7L-4,28.2
		c-1.2,1.3-1.2,3.4,0.2,4.7l1,0.9l0,0c0.6,0.6,1.4,0.9,2.2,0.9c0.9,0,1.8-0.3,2.4-1L5.3,30l-0.7-0.7L1.1,33z"/>
	<path id="XMLID_58_" class="st0" d="M10.8,19.4l-1-0.9c-1.3-1.3-3.4-1.2-4.7,0.1l-3.7,3.9l0.7,0.7l3.7-3.9c0.9-0.9,2.3-1,3.3-0.1
		l1,0.9c0.4,0.4,0.7,1,0.7,1.6s-0.2,1.2-0.6,1.7l-3.7,3.9L7.2,28l3.7-3.9c0.6-0.7,0.9-1.5,0.9-2.4S11.4,20,10.8,19.4z"/>
	
		<rect id="XMLID_57_" x="2.9" y="22.5" transform="matrix(0.7071 0.7071 -0.7071 0.7071 19.4312 5.2347)" class="st0" width="1" height="7.1"/>
</g>
</svg>
