<?xml version="1.0" encoding="utf-8"?>
<!-- Generator: Adobe Illustrator 19.0.0, SVG Export Plug-In . SVG Version: 6.00 Build 0)  -->
<svg version="1.1" id="图层_1" xmlns="http://www.w3.org/2000/svg" xmlns:xlink="http://www.w3.org/1999/xlink" x="0px" y="0px"
	 viewBox="1 -1.1 44.3 44.3" style="enable-background:new 1 -1.1 44.3 44.3;" xml:space="preserve">
<g id="XMLID_2_">
	<path id="XMLID_7_" d="M12.2,0.8c0,0-3.6-4.6-8.8,0.6s-0.3,9.7-0.3,9.7C6.3,3.3,12.2,0.8,12.2,0.8z"/>
	<path id="XMLID_6_" d="M42.9,1.7c-5.3-5.2-8.8-0.6-8.8-0.6s6,2.5,9.1,10.3C43.2,11.4,48.1,7,42.9,1.7z"/>
	<path id="XMLID_3_" d="M23.1,1.1C12.2,1.1,3.4,10,3.4,20.8c0,5.7,2.4,10.8,6.2,14.4l-4,4.1c-0.7,0.7-0.7,1.9,0,2.5l0.9,0.8
		c0.7,0.7,1.9,0.7,2.5,0l4.5-4.6c2.8,1.6,6.1,2.5,9.6,2.5c3.8,0,7.4-1.1,10.4-3c0.1,0.2,0.2,0.3,0.3,0.5l4.5,4.6
		c0.7,0.7,1.8,0.7,2.5,0l0.9-0.8c0.7-0.7,0.7-1.8,0-2.5l-4.5-4.6c0,0,0,0-0.1-0.1c3.5-3.6,5.6-8.4,5.6-13.8C42.8,10,34,1.1,23.1,1.1
		z M23,23.8L23,23.8C22.9,23.8,22.9,23.8,23,23.8c-1,0-1.8-0.8-1.8-1.8V9.5c0-1,0.8-1.8,1.8-1.8s1.8,0.8,1.8,1.8v10.6h10.7
		c1,0,1.8,0.8,1.8,1.8s-0.8,1.8-1.8,1.8H23V23.8z"/>
</g>
</svg>
