<?xml version="1.0" encoding="utf-8"?>
<!-- Generator: Adobe Illustrator 19.0.0, SVG Export Plug-In . SVG Version: 6.00 Build 0)  -->
<svg version="1.1" id="图层_1" xmlns="http://www.w3.org/2000/svg" xmlns:xlink="http://www.w3.org/1999/xlink" x="0px" y="0px"
	 viewBox="0 0 50 50" style="enable-background:new 0 0 50 50;" xml:space="preserve">
<g id="XMLID_10_">
	<path id="XMLID_8_" d="M46.6,22.2l3.3-0.4c-1.5-11.1-10.3-20-21.4-21.6L28,3.5C37.7,4.8,45.3,12.5,46.6,22.2z"/>
	<path id="XMLID_7_" d="M28.1,46.6l0.5,3.3c10.9-1.5,19.4-9.8,21.2-20.7l-3.3-0.6C44.9,38.1,37.5,45.3,28.1,46.6z"/>
	<path id="XMLID_6_" d="M3.5,28.7l-3.3,0.5C2,39.9,10.8,48.4,21.6,49.9l0.5-3.3C12.7,45.3,5.1,37.9,3.5,28.7z"/>
	<path id="XMLID_5_" d="M21.9,3.5l0.7-0.1l-0.4-3.3l-0.8,0.1C10.3,1.8,1.5,10.7,0.1,21.8l3.3,0.4C4.7,12.6,12.3,4.9,21.9,3.5z"/>
	<path id="XMLID_4_" d="M13.5,23.1l3.3,0.6c0.5-3.2,2.9-5.8,6-6.7l-0.9-3.2C17.5,14.9,14.2,18.6,13.5,23.1z"/>
	<path id="XMLID_3_" d="M16.8,26.9l-3.3,0.7c1,4.4,4.4,7.9,8.8,8.9l0.7-3.3C20,32.5,17.5,30,16.8,26.9z"/>
	<path id="XMLID_2_" d="M36.4,27.8L33.1,27c-0.7,3.1-3.2,5.5-6.3,6.2l0.7,3.3C31.9,35.5,35.3,32.1,36.4,27.8z"/>
	<path id="XMLID_1_" d="M33.2,23.3l3.3-0.7c-0.8-4-3.8-7.3-7.6-8.7l-1.1,3.2C30.5,18.1,32.6,20.5,33.2,23.3z"/>
</g>
</svg>
