<svg xmlns="http://www.w3.org/2000/svg" xmlns:xlink="http://www.w3.org/1999/xlink" preserveAspectRatio="xMidYMid" width="50" height="50" viewBox="0 0 50 50">
  <defs>
    <style>
      .cls-1 {
        fill: #000;
        fill-rule: evenodd;
      }
    </style>
  </defs>
  <path d="M44.262,49.540 L25.057,37.521 L5.787,49.581 C5.312,49.215 5.000,48.646 5.000,48.000 L5.000,2.000 C5.000,0.895 5.895,-0.000 7.000,-0.000 L43.000,-0.000 C44.105,-0.000 45.000,0.895 45.000,2.000 L45.000,48.000 C45.000,48.623 44.709,49.173 44.262,49.540 ZM28.725,16.836 L24.981,7.537 L21.237,16.836 L10.006,17.088 L18.924,23.088 L15.726,32.543 L24.981,26.951 L34.236,32.543 L31.038,23.088 L39.956,17.088 L28.725,16.836 Z" class="cls-1"/>
</svg>
