<?xml version="1.0" encoding="utf-8"?>
<!-- Generator: Adobe Illustrator 19.0.0, SVG Export Plug-In . SVG Version: 6.00 Build 0)  -->
<svg version="1.1" id="图层_1" xmlns="http://www.w3.org/2000/svg" xmlns:xlink="http://www.w3.org/1999/xlink" x="0px" y="0px"
	 viewBox="0 0 50 50" style="enable-background:new 0 0 50 50;" xml:space="preserve">
<g id="XMLID_2_">
	<path id="XMLID_5_" d="M36.5,0.1h-23c-3.1,0-5.6,2.5-5.6,5.6v38.5c0,3.1,2.5,5.6,5.6,5.6h23c3.1,0,5.6-2.5,5.6-5.6V5.7
		C42.1,2.6,39.6,0.1,36.5,0.1z M13.5,3.2h23c1.4,0,2.5,1.1,2.5,2.5V11H11V5.7C11,4.4,12.1,3.2,13.5,3.2z M39,14.1v21.8H11V14.1H39z
		 M36.5,46.8h-23c-1.4,0-2.5-1.1-2.5-2.5V39h28v5.3C39,45.6,37.9,46.8,36.5,46.8z"/>
	<rect id="XMLID_4_" x="21.9" y="42.1" width="6.2" height="3.1"/>
	<rect id="XMLID_3_" x="21.9" y="4.8" width="6.2" height="3.1"/>
</g>
</svg>
