<svg xmlns="http://www.w3.org/2000/svg" xmlns:xlink="http://www.w3.org/1999/xlink" preserveAspectRatio="xMidYMid" width="50" height="50" viewBox="0 0 50 50">
  <defs>
    <style>
      .cls-1 {
        fill: #5671a8;
        filter: url(#color-overlay-1);
        fill-rule: evenodd;
      }
    </style>

    <filter id="color-overlay-1" filterUnits="userSpaceOnUse">
      <feFlood/>
      <feComposite operator="in" in2="SourceGraphic"/>
      <feBlend in2="SourceGraphic" result="solidFill"/>
    </filter>
  </defs>
  <path d="M47.000,50.000 L3.000,50.000 C2.448,50.000 2.000,49.552 2.000,49.000 L2.000,2.000 C2.000,1.448 2.448,1.000 3.000,1.000 L47.000,1.000 C47.552,1.000 48.000,1.448 48.000,2.000 L48.000,49.000 C48.000,49.552 47.552,50.000 47.000,50.000 ZM36.500,13.667 C36.500,13.114 36.052,12.667 35.500,12.667 L14.500,12.667 C13.948,12.667 13.500,13.114 13.500,13.667 L13.500,16.333 C13.500,16.886 13.948,17.333 14.500,17.333 L35.500,17.333 C36.052,17.333 36.500,16.886 36.500,16.333 L36.500,13.667 ZM36.500,23.000 C36.500,22.448 36.052,22.000 35.500,22.000 L14.500,22.000 C13.948,22.000 13.500,22.448 13.500,23.000 L13.500,25.667 C13.500,26.219 13.948,26.667 14.500,26.667 L35.500,26.667 C36.052,26.667 36.500,26.219 36.500,25.667 L36.500,23.000 ZM36.500,32.333 C36.500,31.781 36.052,31.333 35.500,31.333 L14.500,31.333 C13.948,31.333 13.500,31.781 13.500,32.333 L13.500,35.000 C13.500,35.552 13.948,36.000 14.500,36.000 L35.500,36.000 C36.052,36.000 36.500,35.552 36.500,35.000 L36.500,32.333 Z" class="cls-1"/>
</svg>
