<svg xmlns="http://www.w3.org/2000/svg" xmlns:xlink="http://www.w3.org/1999/xlink" preserveAspectRatio="xMidYMid" width="50" height="50" viewBox="0 0 50 50">
  <defs>
    <style>
      .cls-1 {
        fill: #5671a8;
        filter: url(#color-overlay-1);
        fill-rule: evenodd;
      }
    </style>

    <filter id="color-overlay-1" filterUnits="userSpaceOnUse">
      <feFlood/>
      <feComposite operator="in" in2="SourceGraphic"/>
      <feBlend in2="SourceGraphic" result="solidFill"/>
    </filter>
  </defs>
  <path d="M47.000,44.619 L22.818,44.619 C22.818,42.200 20.865,40.238 18.455,40.238 C16.045,40.238 14.091,42.200 14.091,44.619 L3.000,44.619 C1.895,44.619 1.000,43.724 1.000,42.619 L1.000,9.381 C1.000,8.276 1.895,7.381 3.000,7.381 L14.091,7.381 C14.091,9.800 16.045,11.762 18.455,11.762 C20.865,11.762 22.818,9.800 22.818,7.381 L47.000,7.381 C48.105,7.381 49.000,8.276 49.000,9.381 L49.000,42.619 C49.000,43.724 48.105,44.619 47.000,44.619 ZM20.636,17.143 C20.636,16.591 20.189,16.143 19.636,16.143 L17.273,16.143 C16.720,16.143 16.273,16.591 16.273,17.143 L16.273,21.714 C16.273,22.267 16.720,22.714 17.273,22.714 L19.636,22.714 C20.189,22.714 20.636,22.267 20.636,21.714 L20.636,17.143 ZM20.636,30.286 C20.636,29.733 20.189,29.286 19.636,29.286 L17.273,29.286 C16.720,29.286 16.273,29.733 16.273,30.286 L16.273,34.857 C16.273,35.409 16.720,35.857 17.273,35.857 L19.636,35.857 C20.189,35.857 20.636,35.409 20.636,34.857 L20.636,30.286 Z" class="cls-1"/>
</svg>
