<svg xmlns="http://www.w3.org/2000/svg" xmlns:xlink="http://www.w3.org/1999/xlink" preserveAspectRatio="xMidYMid" width="50" height="50" viewBox="0 0 50 50">
  <defs>
    <style>
      .cls-1 {
        fill: #939599;
        fill-rule: evenodd;
      }
    </style>
  </defs>
  <path d="M43.000,49.000 L7.000,49.000 C5.895,49.000 5.000,48.105 5.000,47.000 L5.000,11.942 C5.000,10.838 5.895,9.942 7.000,9.942 L11.287,9.942 L10.829,11.534 C10.829,11.534 9.394,13.497 12.834,13.434 C16.273,13.371 36.593,13.434 36.593,13.434 C36.593,13.434 39.425,13.674 38.312,11.262 C38.052,10.699 37.855,10.276 37.700,9.942 L43.000,9.942 C44.105,9.942 45.000,10.838 45.000,11.942 L45.000,47.000 C45.000,48.105 44.105,49.000 43.000,49.000 ZM35.476,19.462 L22.143,32.385 L16.429,26.846 L12.619,30.538 L22.143,39.769 L39.286,23.154 L35.476,19.462 ZM15.311,6.158 C15.311,5.858 15.568,5.615 15.884,5.615 L17.658,5.615 L18.562,1.543 C18.562,1.243 18.819,1.000 19.135,1.000 L27.814,1.000 C28.131,1.000 28.387,1.243 28.387,1.543 L29.292,5.615 L31.638,5.615 C31.954,5.615 32.211,5.858 32.211,6.158 L32.947,8.774 L14.630,8.579 L15.311,6.158 Z" class="cls-1"/>
</svg>
