<?xml version="1.0" encoding="utf-8"?>
<!-- Generator: Adobe Illustrator 19.0.0, SVG Export Plug-In . SVG Version: 6.00 Build 0)  -->
<svg version="1.1" id="图层_1" xmlns="http://www.w3.org/2000/svg" xmlns:xlink="http://www.w3.org/1999/xlink" x="0px" y="0px"
	 viewBox="0 0 50 50" style="enable-background:new 0 0 50 50;" xml:space="preserve">
<g id="XMLID_2_">
	<path id="XMLID_4_" d="M24.7,26.7L46,48.9c0.5,0.5,1,0.7,1.6,0.7c0.5,0,1.1-0.2,1.5-0.6c0.9-0.9,0.9-2.2,0.1-3.1L29.3,25.2
		L49.2,4.1C50,3.2,50,1.8,49.1,1c-0.8-0.8-2.2-0.7-3,0.1L24.8,23.7C24,24.5,24,25.9,24.7,26.7z"/>
	<path id="XMLID_3_" d="M0.6,26.7l21.3,22.2c0.5,0.5,1,0.7,1.6,0.7c0.5,0,1.1-0.2,1.5-0.6c0.9-0.9,0.9-2.2,0.1-3.1L5.3,25.2
		L25.2,4.1C26,3.2,26,1.8,25.1,1S22.8,0.2,22,1.1L0.7,23.7C-0.1,24.5-0.1,25.9,0.6,26.7z"/>
</g>
</svg>
