<?xml version="1.0" encoding="utf-8"?>
<!-- Generator: Adobe Illustrator 19.0.0, SVG Export Plug-In . SVG Version: 6.00 Build 0)  -->
<svg version="1.1" id="图层_1" xmlns="http://www.w3.org/2000/svg" xmlns:xlink="http://www.w3.org/1999/xlink" x="0px" y="0px"
	 viewBox="-17 19 14 14" style="enable-background:new -17 19 14 14;" xml:space="preserve">
<g id="XMLID_6_">
	<path id="XMLID_55_" d="M-7,20v-1h-1v1h-4v-1h-1v1h-3v13h12V20H-7z M-5,32h-10v-7h10V32z M-5,24h-10v-3h2v1h1v-1h4v1h1v-1h2V24z"/>
	<rect id="XMLID_57_" x="-14" y="26.9" width="2" height="1"/>
	<rect id="XMLID_58_" x="-11" y="26.9" width="2" height="1"/>
	<rect id="XMLID_59_" x="-8" y="26.9" width="2" height="1"/>
	<rect id="XMLID_60_" x="-8" y="28.9" width="2" height="1"/>
	<rect id="XMLID_61_" x="-11" y="28.9" width="2" height="1"/>
	<rect id="XMLID_62_" x="-14" y="28.9" width="2" height="1"/>
</g>
</svg>
