<?xml version="1.0" encoding="utf-8"?>
<!-- Generator: Adobe Illustrator 19.0.0, SVG Export Plug-In . SVG Version: 6.00 Build 0)  -->
<svg version="1.1" id="图层_1" xmlns="http://www.w3.org/2000/svg" xmlns:xlink="http://www.w3.org/1999/xlink" x="0px" y="0px"
	 viewBox="0 0 50 50" style="enable-background:new 0 0 50 50;" xml:space="preserve">
<g id="XMLID_2_">
	<path id="XMLID_6_" d="M41,0.3H9c-4.1,0-7.4,3.3-7.4,7.4v34.5c0,4.1,3.3,7.4,7.4,7.4H41c4.1,0,7.4-3.3,7.4-7.4V7.7
		C48.5,3.6,45.1,0.3,41,0.3z M43.5,42.3c0,1.4-1.1,2.5-2.5,2.5H9c-1.4,0-2.5-1.1-2.5-2.5V7.7c0-1.4,1.1-2.5,2.5-2.5H41
		c1.4,0,2.5,1.1,2.5,2.5V42.3z"/>
	<path id="XMLID_5_" d="M33.6,12.7H16.4c-1.4,0-2.5,1.1-2.5,2.5s1.1,2.5,2.5,2.5h17.3c1.4,0,2.5-1.1,2.5-2.5S35,12.7,33.6,12.7z"/>
	<path id="XMLID_4_" d="M33.6,22.5H16.4c-1.4,0-2.5,1.1-2.5,2.5s1.1,2.5,2.5,2.5h17.3c1.4,0,2.5-1.1,2.5-2.5S35,22.5,33.6,22.5z"/>
	<path id="XMLID_3_" d="M31.2,32.4H16.4c-1.4,0-2.5,1.1-2.5,2.5c0,1.4,1.1,2.5,2.5,2.5h14.8c1.4,0,2.5-1.1,2.5-2.5
		C33.6,33.5,32.5,32.4,31.2,32.4z"/>
</g>
</svg>
