<?xml version="1.0" encoding="utf-8"?>
<!-- Generator: Adobe Illustrator 19.0.0, SVG Export Plug-In . SVG Version: 6.00 Build 0)  -->
<svg version="1.1" id="图层_1" xmlns="http://www.w3.org/2000/svg" xmlns:xlink="http://www.w3.org/1999/xlink" x="0px" y="0px"
	 viewBox="0 0 26.8 26.8" style="enable-background:new 0 0 26.8 26.8;" xml:space="preserve">
<g id="XMLID_3_">
	<path id="XMLID_76_" d="M14.4,12.3c0-1.1-0.9-2-2-2s-2,0.9-2,2s0.9,2,2,2S14.4,13.4,14.4,12.3z M11.4,12.3c0-0.6,0.4-1,1-1
		s1,0.4,1,1s-0.4,1-1,1S11.4,12.9,11.4,12.3z"/>
	<path id="XMLID_73_" d="M18.5,14c-1.1,0-2,0.9-2,2s0.9,2,2,2s2-0.9,2-2S19.6,14,18.5,14z M18.5,17c-0.6,0-1-0.4-1-1
		c0-0.6,0.4-1,1-1s1,0.4,1,1C19.5,16.5,19,17,18.5,17z"/>
	<path id="XMLID_72_" d="M18.4,9.2c-0.2-0.1-0.5-0.1-0.7,0.2L12.4,18c-0.1,0.2-0.1,0.5,0.2,0.7c0.1,0.1,0.2,0.1,0.3,0.1
		c0.2,0,0.3-0.1,0.4-0.2l5.3-8.7C18.7,9.7,18.6,9.4,18.4,9.2z"/>
	<path id="XMLID_71_" d="M8.2,13.5H5.1c-0.3,0-0.5,0.2-0.5,0.5s0.2,0.5,0.5,0.5h3.1c0.3,0,0.5-0.2,0.5-0.5S8.5,13.5,8.2,13.5z"/>
	<path id="XMLID_4_" d="M23.4,8.9V8c0-1-0.8-1.9-1.9-1.9H5.1C4.1,6.2,3.3,7,3.3,8v1c-1.9,0.7-3.2,2.6-3.2,4.6c0,2.1,1.3,3.9,3.2,4.6
		V20c0,1,0.8,1.9,1.9,1.9h16.4c1,0,1.9-0.8,1.9-1.9v-1.7c2-0.7,3.4-2.6,3.4-4.7S25.4,9.6,23.4,8.9z M22.7,17.5l-0.4,0.1V20
		c0,0.5-0.4,0.9-0.9,0.9H5.1c-0.5,0-0.9-0.4-0.9-0.9v-2.5l-0.4-0.1c-1.7-0.5-2.8-2-2.8-3.8s1.1-3.3,2.8-3.8l0.4-0.1V8
		c0-0.5,0.4-0.9,0.9-0.9h16.4c0.5,0,0.9,0.4,0.9,0.9v1.7l0.4,0.1c1.8,0.5,3,2,3,3.8S24.5,17,22.7,17.5z"/>
</g>
</svg>
