<?xml version="1.0" encoding="utf-8"?>
<!-- Generator: Adobe Illustrator 19.0.0, SVG Export Plug-In . SVG Version: 6.00 Build 0)  -->
<svg version="1.1" id="图层_1" xmlns="http://www.w3.org/2000/svg" xmlns:xlink="http://www.w3.org/1999/xlink" x="0px" y="0px"
	 viewBox="0 0 14.8 14.8" style="enable-background:new 0 0 14.8 14.8;" xml:space="preserve">
<g id="XMLID_4_">
	<path id="XMLID_47_" d="M3.5,6.4c1.7,0,3.2-1.4,3.2-3.2S5.3,0,3.5,0S0.4,1.5,0.4,3.2S1.8,6.4,3.5,6.4z M3.5,1c1.2,0,2.2,1,2.2,2.2
		s-1,2.2-2.2,2.2c-1.2,0-2.2-1-2.2-2.2S2.4,1,3.5,1z"/>
	<path id="XMLID_44_" d="M11.6,8.2c-1.7,0-3.2,1.4-3.2,3.2s1.4,3.2,3.2,3.2s3.2-1.4,3.2-3.2S13.4,8.2,11.6,8.2z M11.6,13.5
		c-1.2,0-2.2-1-2.2-2.2s1-2.2,2.2-2.2s2.2,1,2.2,2.2S12.8,13.5,11.6,13.5z"/>
	<path id="XMLID_43_" d="M14.5,0.2C14.3,0,14,0,13.8,0.2L0.2,13.6c-0.2,0.2-0.2,0.5,0,0.7c0.1,0.1,0.2,0.1,0.4,0.1
		c0.1,0,0.3,0,0.4-0.1L14.5,0.9C14.7,0.7,14.7,0.4,14.5,0.2z"/>
</g>
</svg>
