<?xml version="1.0" encoding="utf-8"?>
<!-- Generator: Adobe Illustrator 19.0.0, SVG Export Plug-In . SVG Version: 6.00 Build 0)  -->
<svg version="1.1" id="图层_1" xmlns="http://www.w3.org/2000/svg" xmlns:xlink="http://www.w3.org/1999/xlink" x="0px" y="0px"
	 viewBox="-6.7 12.7 20.5 20.5" style="enable-background:new -6.7 12.7 20.5 20.5;" xml:space="preserve">
<style type="text/css">
	.st0{fill:#040000;}
</style>
<path class="st0" d="M11,33.2H-3.5c-1,0-1.8-0.8-1.8-1.8V14.5c0-1,0.8-1.8,1.8-1.8h9.8l6.5,6.3v12.4C12.8,32.4,12,33.2,11,33.2z
	 M-3.5,13.7c-0.4,0-0.8,0.4-0.8,0.8v16.9c0,0.4,0.3,0.8,0.8,0.8H11c0.4,0,0.8-0.3,0.8-0.8v-12l-5.9-5.8H-3.5z M3.8,29.9l-4.7-6.2H2
	v-4.9h3.4v4.9h2.9L3.8,29.9z M1.1,24.7l2.7,3.5l2.7-3.5H4.5v-4.9H3v4.9H1.1z"/>
</svg>
