<?xml version="1.0" encoding="utf-8"?>
<!-- Generator: Adobe Illustrator 19.0.0, SVG Export Plug-In . SVG Version: 6.00 Build 0)  -->
<svg version="1.1" id="图层_1" xmlns="http://www.w3.org/2000/svg" xmlns:xlink="http://www.w3.org/1999/xlink" x="0px" y="0px"
	 viewBox="0 0 50 50" style="enable-background:new 0 0 50 50;" xml:space="preserve">
<style type="text/css">
	.st0{fill:#040000;}
</style>
<g>
	<path class="st0" d="M43.4,0H6.6C3,0,0,3,0,6.6v36.7C0,47,3,50,6.6,50h36.7c3.7,0,6.6-3,6.6-6.6V6.6C50,3,47,0,43.4,0z M47.4,43.4
		c0,2.2-1.8,4-4,4H6.6c-2.2,0-4-1.8-4-4V6.6c0-2.2,1.8-4,4-4h36.7c2.2,0,4,1.8,4,4V43.4z"/>
	<polygon id="XMLID_1_" class="st0" points="13.8,20.2 25.3,35.2 36.3,20.1 13.7,20.1 	"/>
</g>
</svg>
