<?xml version="1.0" encoding="utf-8"?>
<!-- Generator: Adobe Illustrator 19.0.0, SVG Export Plug-In . SVG Version: 6.00 Build 0)  -->
<svg version="1.1" id="图层_1" xmlns="http://www.w3.org/2000/svg" xmlns:xlink="http://www.w3.org/1999/xlink" x="0px" y="0px"
	 viewBox="0 0 50 50" style="enable-background:new 0 0 50 50;" xml:space="preserve">
<style type="text/css">
	.st0{fill:#040000;}
</style>
<g id="XMLID_5_">
	<path id="XMLID_7_" class="st0" d="M43.3,0.1H6.8c-3.6,0-6.6,3-6.6,6.6v36.5c0,3.6,3,6.6,6.6,6.6h36.5c3.6,0,6.6-3,6.6-6.6V6.7
		C49.9,3.1,46.9,0.1,43.3,0.1z M47.3,43.2c0,2.2-1.8,4-4,4H6.8c-2.2,0-4-1.8-4-4V6.7c0-2.2,1.8-4,4-4h36.5c2.2,0,4,1.8,4,4V43.2z"/>
	<polygon id="XMLID_1_" class="st0" points="25.6,29.5 13.4,19.6 11.7,21.7 25.6,32.8 39.5,21.7 37.9,19.6 	"/>
</g>
</svg>
