<?xml version="1.0" encoding="utf-8"?>
<!-- Generator: Adobe Illustrator 19.0.0, SVG Export Plug-In . SVG Version: 6.00 Build 0)  -->
<svg version="1.1" id="图层_1" xmlns="http://www.w3.org/2000/svg" xmlns:xlink="http://www.w3.org/1999/xlink" x="0px" y="0px"
	 viewBox="-6.8 16.6 20.5 20.5" style="enable-background:new -6.8 16.6 20.5 20.5;" xml:space="preserve">
<style type="text/css">
	.st0{fill:#060001;}
</style>
<g id="XMLID_56_">
	<path id="XMLID_58_" class="st0" d="M12.8,23.6c-0.6,0-1,0.4-1,1v8.9c0,1-0.8,1.7-1.7,1.7H-2.7c-1,0-1.7-0.8-1.7-1.7V20.3
		c0-1,0.8-1.7,1.7-1.7h9.4c0.6,0,1-0.4,1-1s-0.4-1-1-1h-9.4c-2.1,0-3.7,1.7-3.7,3.7v13.1c0,2.1,1.7,3.7,3.7,3.7H10
		c2.1,0,3.7-1.7,3.7-3.7v-8.9C13.8,24,13.3,23.6,12.8,23.6z"/>
	<path id="XMLID_57_" class="st0" d="M0.1,31.1c0.2,0.2,0.4,0.3,0.7,0.3s0.5-0.1,0.7-0.3L13,18.8c0.4-0.4,0.4-1,0-1.4
		c-0.4-0.4-1-0.4-1.4,0L0.1,29.7C-0.3,30.1-0.3,30.7,0.1,31.1z"/>
</g>
</svg>
