<?xml version="1.0" encoding="utf-8"?>
<!-- Generator: Adobe Illustrator 19.0.0, SVG Export Plug-In . SVG Version: 6.00 Build 0)  -->
<svg version="1.1" id="图层_1" xmlns="http://www.w3.org/2000/svg" xmlns:xlink="http://www.w3.org/1999/xlink" x="0px" y="0px"
	 viewBox="0 0 21.5 21.5" style="enable-background:new 0 0 21.5 21.5;" xml:space="preserve">
<g id="XMLID_4_">
	<rect id="XMLID_34_" x="5.9" y="5.6" width="10" height="1"/>
	<rect id="XMLID_33_" x="5.9" y="9.6" width="10" height="1"/>
	<rect id="XMLID_32_" x="5.9" y="13.6" width="8" height="1"/>
	<path id="XMLID_31_" d="M2.4,19.6v-18c0-0.3,0.2-0.5,0.5-0.5h16c0.3,0,0.5,0.2,0.5,0.5v7h1v-7c0-0.8-0.7-1.5-1.5-1.5h-16
		c-0.8,0-1.5,0.7-1.5,1.5v18c0,0.8,0.7,1.5,1.5,1.5h11v-1h-11C2.7,20.1,2.4,19.8,2.4,19.6z"/>
	
		<rect id="XMLID_30_" x="13.2" y="15.6" transform="matrix(0.4646 -0.8855 0.8855 0.4646 -4.0825 25.3656)" width="11.5" height="1"/>
</g>
</svg>
