<?xml version="1.0" encoding="utf-8"?>
<!-- Generator: Adobe Illustrator 19.0.0, SVG Export Plug-In . SVG Version: 6.00 Build 0)  -->
<svg version="1.1" id="图层_1" xmlns="http://www.w3.org/2000/svg" xmlns:xlink="http://www.w3.org/1999/xlink" x="0px" y="0px"
	 viewBox="0 0 50 50" style="enable-background:new 0 0 50 50;" xml:space="preserve">
<g id="XMLID_2_">
	<path id="XMLID_9_" d="M48.3,5.7H27.7V0L1.7,7.2v35.4l26.1,7.2v-5.7h20.6V5.7z M26.4,48L3,41.6V8.3l23.3-6.5V48z M47,42.8H27.7
		v-6.9h4.8v-1.4h-4.8v-4.1h4.8V29h-4.8v-4.1h4.8v-1.4h-4.8v-4.1h4.8v-1.4h-4.8v-4.1h4.8v-1.4h-4.8V7.1H47V42.8z"/>
	<polygon id="XMLID_8_" points="9.8,32.8 14,26.2 18.2,32.8 19.4,32.1 14.8,24.9 19.4,17.7 18.2,17 14,23.6 9.8,17 8.6,17.7 
		13.2,24.9 8.6,32.1 	"/>
	<rect id="XMLID_7_" x="35.3" y="12.6" width="6.9" height="1.4"/>
	<rect id="XMLID_6_" x="35.3" y="18.1" width="6.9" height="1.4"/>
	<rect id="XMLID_5_" x="35.3" y="23.6" width="6.9" height="1.4"/>
	<rect id="XMLID_4_" x="35.3" y="29" width="6.9" height="1.4"/>
	<rect id="XMLID_3_" x="35.3" y="34.5" width="6.9" height="1.4"/>
</g>
</svg>
