<?xml version="1.0" encoding="utf-8"?>
<!-- Generator: Adobe Illustrator 19.0.0, SVG Export Plug-In . SVG Version: 6.00 Build 0)  -->
<svg version="1.1" id="图层_1" xmlns="http://www.w3.org/2000/svg" xmlns:xlink="http://www.w3.org/1999/xlink" x="0px" y="0px"
	 viewBox="-6.8 14.7 21.1 21.1" style="enable-background:new -6.8 14.7 21.1 21.1;" xml:space="preserve">
<style type="text/css">
	.st0{fill:#060001;}
</style>
<path id="XMLID_56_" class="st0" d="M14.2,35.9H-6.7v-6l0.8,0.6c0.6,0.5,1.4,0.7,2.1,0.6c1.7-0.1,3-1.6,2.9-3.3c0-0.8-0.4-1.6-1-2.1
	s-1.4-0.8-2.3-0.8c-0.6,0-1.2,0.3-1.7,0.6l-0.8,0.6v-6h7.3c-0.2-0.4-0.2-0.9-0.2-1.3c0-2.2,1.8-4,4-4s4,1.8,4,4
	c0,0.4-0.1,0.9-0.2,1.3h6C14.2,20.1,14.2,35.9,14.2,35.9z M-5.7,34.9h18.8V21.2H6.4l0.5-0.8c0.3-0.5,0.5-1,0.5-1.6c0-1.6-1.3-3-3-3
	s-3,1.3-3,3c0,0.5,0.2,1.1,0.5,1.6l0.5,0.8h-8v3.1c0.4-0.2,0.9-0.3,1.4-0.4c1.1-0.1,2.2,0.3,3,1c0.8,0.8,1.3,1.8,1.3,2.9
	c0.1,1.1-0.3,2.2-1,3s-1.7,1.3-2.8,1.4c-0.7,0-1.4-0.1-2-0.4V34.9z"/>
</svg>
