<?xml version="1.0" encoding="utf-8"?>
<!-- Generator: Adobe Illustrator 19.0.0, SVG Export Plug-In . SVG Version: 6.00 Build 0)  -->
<svg version="1.1" id="图层_1" xmlns="http://www.w3.org/2000/svg" xmlns:xlink="http://www.w3.org/1999/xlink" x="0px" y="0px"
	 viewBox="-4.7 17.9 16 16" style="enable-background:new -4.7 17.9 16 16;" xml:space="preserve">
<style type="text/css">
	.st0{fill:#040000;}
</style>
<g id="XMLID_56_">
	<path id="XMLID_60_" class="st0" d="M3.3,21.4c-4.5,0-8,2.2-8,4.9s3.5,4.9,8,4.9s8-2.2,8-4.9S7.8,21.4,3.3,21.4z M3.3,30.3
		c-3.8,0-7-1.8-7-3.9s3.2-3.9,7-3.9s7,1.8,7,3.9S7.1,30.3,3.3,30.3z"/>
	<path id="XMLID_57_" class="st0" d="M3.3,23.4c-1.6,0-3,1.3-3,3c0,1.7,1.3,3,3,3s3-1.3,3-3C6.3,24.7,4.9,23.4,3.3,23.4z M3.3,28.3
		c-1.1,0-2-0.9-2-2s0.9-2,2-2s2,0.9,2,2S4.4,28.3,3.3,28.3z"/>
</g>
</svg>
