<svg xmlns="http://www.w3.org/2000/svg" xmlns:xlink="http://www.w3.org/1999/xlink" preserveAspectRatio="xMidYMid" width="50" height="50" viewBox="0 0 50 50">
  <defs>
    <style>
      .cls-1 {
        fill: #939599;
        fill-rule: evenodd;
      }
    </style>
  </defs>
  <path d="M38.408,11.928 L14.529,32.893 C14.529,32.893 13.684,34.416 10.991,32.893 C8.298,31.369 0.378,26.196 0.378,26.196 C0.378,26.196 -1.009,24.450 1.557,23.284 C4.123,22.118 46.073,1.155 46.073,1.155 C46.073,1.155 49.511,0.110 49.021,3.484 C48.532,6.858 40.177,48.616 40.177,48.616 C40.177,48.616 39.179,51.002 36.934,49.490 C34.689,47.978 26.321,42.210 26.321,42.210 L20.720,47.451 C20.720,47.451 17.816,49.161 17.477,46.287 C17.138,43.413 17.772,35.513 17.772,35.513 L38.998,12.802 C38.998,12.802 39.681,11.552 38.408,11.928 Z" class="cls-1"/>
</svg>
