<?xml version="1.0" encoding="utf-8"?>
<!-- Generator: Adobe Illustrator 19.0.0, SVG Export Plug-In . SVG Version: 6.00 Build 0)  -->
<svg version="1.1" id="图层_1" xmlns="http://www.w3.org/2000/svg" xmlns:xlink="http://www.w3.org/1999/xlink" x="0px" y="0px"
	 viewBox="-6.4 16.2 20.3 20.3" style="enable-background:new -6.4 16.2 20.3 20.3;" xml:space="preserve">
<style type="text/css">
	.st0{fill:#040000;}
</style>
<path id="XMLID_56_" class="st0" d="M11.9,23.9c-0.2-4.1-3.6-7.5-7.8-7.5H3.2c-4.2,0-7.6,3.3-7.8,7.5c-0.9,0.4-1.7,1.2-1.7,3.1
	c0,2.1,1.1,2.8,2.1,3.1c0.8,2.3,2.6,4.2,5,4.9c0.1,0.8,0.7,1.4,1.5,1.4h2c0.8,0,1.5-0.7,1.5-1.5s-0.7-1.5-1.5-1.5h-2
	c-0.5,0-1,0.3-1.2,0.6c-1.9-0.6-3.4-2-4.1-3.9c0.4,0,0.8-0.1,0.8-0.1v-6.4c0,0-0.6-0.1-1.2,0c0.3-3.5,3.2-6.2,6.8-6.2h0.9
	c3.6,0,6.5,2.7,6.8,6.2c-0.7-0.1-1.2,0-1.2,0V30c0,0,3.9,1,4-3.1C13.7,25.1,12.8,24.3,11.9,23.9z"/>
</svg>
