<?xml version="1.0" encoding="utf-8"?>
<!-- Generator: Adobe Illustrator 19.0.0, SVG Export Plug-In . SVG Version: 6.00 Build 0)  -->
<svg version="1.1" id="图层_1" xmlns="http://www.w3.org/2000/svg" xmlns:xlink="http://www.w3.org/1999/xlink" x="0px" y="0px"
	 viewBox="0 0 26.2 26.2" style="enable-background:new 0 0 26.2 26.2;" xml:space="preserve">
<g id="XMLID_32_">
	<path id="XMLID_97_" d="M22.1,2.1h-18c-2.2,0-4,1.8-4,4v14c0,2.2,1.8,4,4,4h18c2.2,0,4-1.8,4-4v-14C26.1,3.9,24.3,2.1,22.1,2.1z
		 M14.2,20.4c0,0-1.7-4.4-5.1-4.4c-3.4,0-5,4.3-5.1,4.4l-1.9-0.7c0.1-0.2,1.7-4.2,5.1-5.3c-1.3-0.8-2.1-2.2-2.1-3.8
		c0-2.5,2-4.5,4.5-4.5s4.5,2,4.5,4.5c0,1.8-1,3.3-2.5,4c3,1.4,4.4,4.9,4.5,5.1L14.2,20.4z M23.1,19.1h-5v-2h5V19.1z M23.1,14.1h-5
		v-2h5V14.1z M23.1,9.1h-5v-2h5V9.1z"/>
	<circle id="XMLID_33_" cx="9.6" cy="10.6" r="2.5"/>
</g>
</svg>
