<?xml version="1.0" encoding="utf-8"?>
<!-- Generator: Adobe Illustrator 19.0.0, SVG Export Plug-In . SVG Version: 6.00 Build 0)  -->
<svg version="1.1" id="图层_1" xmlns="http://www.w3.org/2000/svg" xmlns:xlink="http://www.w3.org/1999/xlink" x="0px" y="0px"
	 viewBox="-5.1 17.5 18.3 18.3" style="enable-background:new -5.1 17.5 18.3 18.3;" xml:space="preserve">
<style type="text/css">
	.st0{fill:#060001;}
</style>
<g id="XMLID_56_">
	<path id="XMLID_58_" class="st0" d="M11.6,33.5c0,0.4-0.3,0.7-0.7,0.7H-3.4c-0.4,0-0.7-0.3-0.7-0.7V19.2c0-0.4,0.3-0.7,0.7-0.7
		h14.3c0.4,0,0.7,0.3,0.7,0.7v1.2h1v-1.2c0-0.9-0.8-1.7-1.7-1.7H-3.4c-0.9,0-1.7,0.8-1.7,1.7v14.3c0,0.9,0.8,1.7,1.7,1.7h14.3
		c0.9,0,1.7-0.8,1.7-1.7v-6.2h-1V33.5z"/>
	<polygon id="XMLID_57_" class="st0" points="3.9,29.5 -0.8,24.8 -1.5,25.6 3.9,30.9 13.2,22.6 12.6,21.8 	"/>
</g>
</svg>
