<?xml version="1.0" encoding="utf-8"?>
<!-- Generator: Adobe Illustrator 19.0.0, SVG Export Plug-In . SVG Version: 6.00 Build 0)  -->
<svg version="1.1" id="图层_1" xmlns="http://www.w3.org/2000/svg" xmlns:xlink="http://www.w3.org/1999/xlink" x="0px" y="0px"
	 viewBox="-13.6 15.4 20.2 20.2" style="enable-background:new -13.6 15.4 20.2 20.2;" xml:space="preserve">
<path id="XMLID_3_" d="M0.1,16.3c-3.6,0-6.5,2.9-6.5,6.5c0,1.2,0.4,2.4,1,3.4l-3,3l-2.4-2.4l-2.8,2.8l2.4,2.4l-1.4,1.4l2.1,2.1
	l7.2-7.2c1,0.6,2.1,1,3.4,1c3.6,0,6.5-2.9,6.5-6.5S3.7,16.3,0.1,16.3z M0.1,26.3c-1.9,0-3.5-1.6-3.5-3.5c0-1.9,1.6-3.5,3.5-3.5
	s3.5,1.6,3.5,3.5C3.6,24.7,2,26.3,0.1,26.3z"/>
</svg>
