<?xml version="1.0" encoding="utf-8"?>
<!-- Generator: Adobe Illustrator 19.0.0, SVG Export Plug-In . SVG Version: 6.00 Build 0)  -->
<svg version="1.1" id="图层_1" xmlns="http://www.w3.org/2000/svg" xmlns:xlink="http://www.w3.org/1999/xlink" x="0px" y="0px"
	 viewBox="-7.5 15.6 22.2 22.2" style="enable-background:new -7.5 15.6 22.2 22.2;" xml:space="preserve">
<path d="M14.6,21c-0.1-1.5-1.6-2-2.4-2H8.1c-0.1-1.3-1.2-2.2-2.5-2.2H1.5c-1.4,0-2.5,1.1-2.5,2.5v0.5c0,1.4,1.1,2.5,2.5,2.5h4.1
	c1.3,0,2.3-1,2.5-2.3l4.1,0c0,0,1.4,0.1,1.4,1.1c0.1,1.3,0,3.5,0,3.9c-0.1,0.2-0.4,1-1.3,1H8.1c-0.2-1.2-1.2-2.2-2.5-2.2H1.5
	c-1.3,0-2.3,1-2.5,2.3l-4.2,0c-0.8,0-2.3,0.5-2.3,2c-0.1,1.5,0,3.9,0,4l0,0.1c0.2,0.6,0.9,1.8,2.3,1.8H-1c0.1,1.3,1.2,2.2,2.5,2.2
	h4.1c1.4,0,2.5-1.1,2.5-2.5v-0.5c0-1.4-1.1-2.5-2.5-2.5H1.5c-1.3,0-2.3,1-2.5,2.3h-4.2c-0.9,0-1.2-0.8-1.3-1c0-0.4-0.1-2.6,0-3.9
	c0-1,1.3-1.1,1.4-1.1H-1c0.1,1.3,1.2,2.3,2.5,2.3h4.1c1.3,0,2.4-1,2.5-2.3h4.2c1.4,0,2.1-1.2,2.3-1.8l0-0.1
	C14.6,24.9,14.6,22.4,14.6,21z M7.1,19.7c0,0.8-0.7,1.5-1.5,1.5H1.5c-0.8,0-1.5-0.7-1.5-1.5v-0.5c0-0.8,0.7-1.5,1.5-1.5h4.1
	c0.8,0,1.5,0.7,1.5,1.5V19.7z M0,33.3c0-0.8,0.7-1.5,1.5-1.5h4.1c0.8,0,1.5,0.7,1.5,1.5v0.5c0,0.8-0.7,1.5-1.5,1.5H1.5
	c-0.8,0-1.5-0.7-1.5-1.5V33.3z M7.1,26.8c0,0.8-0.7,1.5-1.5,1.5H1.5c-0.8,0-1.5-0.7-1.5-1.5v-0.5c0-0.8,0.7-1.5,1.5-1.5h4.1
	c0.8,0,1.5,0.7,1.5,1.5V26.8z"/>
</svg>
