<?xml version="1.0" encoding="utf-8"?>
<!-- Generator: Adobe Illustrator 19.0.0, SVG Export Plug-In . SVG Version: 6.00 Build 0)  -->
<svg version="1.1" id="图层_1" xmlns="http://www.w3.org/2000/svg" xmlns:xlink="http://www.w3.org/1999/xlink" x="0px" y="0px"
	 viewBox="-6.3 16.4 20.6 20.6" style="enable-background:new -6.3 16.4 20.6 20.6;" xml:space="preserve">
<style type="text/css">
	.st0{fill:#040000;}
</style>
<g id="XMLID_55_">
	<path id="XMLID_57_" class="st0" d="M13.7,31.3L13.7,31.3h-1.8c0.4-0.6,0.7-1.2,0.9-1.9c0.3-1,0.5-2,0.5-3.1c0-1.3-0.2-2.5-0.7-3.7
		c-0.5-1.1-1.2-2.1-2-3c-0.9-0.9-1.9-1.5-3-2c-1.2-0.5-2.4-0.7-3.7-0.7c-1.1,0-2.1,0.2-3.1,0.5c-0.3,0.1-0.4,0.4-0.3,0.7
		c0.1,0.3,0.4,0.4,0.7,0.3C2.1,18.1,3,17.9,4,17.9c2.2,0,4.3,0.9,5.9,2.4c1.6,1.6,2.4,3.7,2.4,5.9c0,0.9-0.2,1.9-0.5,2.7
		c-0.2,0.6-0.5,1.1-0.8,1.6l-0.6-1.6c-0.1-0.3-0.4-0.4-0.7-0.3c-0.3,0.1-0.4,0.4-0.3,0.7l0.9,2.6c0,0.1,0.1,0.2,0.1,0.2
		c0.1,0.1,0.2,0.2,0.4,0.2l0,0h2.9c0.3,0,0.6-0.2,0.6-0.6C14.2,31.5,14,31.3,13.7,31.3L13.7,31.3z"/>
	<path id="XMLID_56_" class="st0" d="M7.5,33.8c-1.1,0.5-2.3,0.8-3.6,0.8c-2.2,0-4.3-0.9-5.9-2.4c-1.6-1.6-2.4-3.7-2.4-5.9
		c0-1.8,0.6-3.6,1.7-5l0.7,2c0.1,0.2,0.3,0.4,0.5,0.4c0.1,0,0.1,0,0.2,0C-1,23.6-0.9,23.3-1,23l-1-2.8c-0.1-0.2-0.3-0.4-0.6-0.4
		h-0.1l0,0h-3c-0.3,0-0.6,0.2-0.6,0.6c0,0.3,0.2,0.6,0.6,0.6l0,0h1.8c-1.1,1.6-1.7,3.4-1.7,5.4c0,1.3,0.2,2.5,0.7,3.7
		c0.5,1.1,1.2,2.1,2,3c0.9,0.9,1.9,1.5,3,2c1.2,0.5,2.4,0.7,3.7,0.7c1.4,0,2.8-0.3,4.1-0.9c0.3-0.1,0.4-0.5,0.3-0.7
		C8.1,33.8,7.8,33.7,7.5,33.8L7.5,33.8z"/>
</g>
</svg>
