<?xml version="1.0" encoding="utf-8"?>
<!-- Generator: Adobe Illustrator 19.0.0, SVG Export Plug-In . SVG Version: 6.00 Build 0)  -->
<svg version="1.1" id="图层_1" xmlns="http://www.w3.org/2000/svg" xmlns:xlink="http://www.w3.org/1999/xlink" x="0px" y="0px"
	 viewBox="0 0 21.1 21.1" style="enable-background:new 0 0 21.1 21.1;" xml:space="preserve">
<g id="XMLID_122_">
	<path id="XMLID_162_" d="M16.1,2.8C14.7,1,12.5,0.1,10,0.1c-2.5,0-4.7,1.1-6.2,3c-1.7,2.2-2.3,5.2-1.6,8c1.3,5.4,7.3,9.5,7.5,9.7
		L10,21l0.3-0.1c0.3-0.1,6.4-3.5,7.6-9.7C18.4,7.8,17.8,4.8,16.1,2.8z M16.9,10.9c-0.9,5.1-5.7,8.2-6.8,8.9c-1.1-0.8-5.8-4.5-6.9-9
		C2.5,8.3,3.1,5.6,4.6,3.7C5.9,2,7.8,1,10,1c2.2,0,4.1,0.8,5.4,2.3C16.9,5.2,17.4,7.9,16.9,10.9z"/>
	<path id="XMLID_123_" d="M10.2,3.9c-2.5,0-4.5,2-4.5,4.5s2,4.5,4.5,4.5s4.5-2,4.5-4.5S12.6,3.9,10.2,3.9z M10.2,11.9
		c-1.9,0-3.5-1.6-3.5-3.5s1.6-3.5,3.5-3.5s3.5,1.6,3.5,3.5S12.1,11.9,10.2,11.9z"/>
</g>
</svg>
