<?xml version="1.0" encoding="utf-8"?>
<!-- Generator: Adobe Illustrator 19.0.0, SVG Export Plug-In . SVG Version: 6.00 Build 0)  -->
<svg version="1.1" id="图层_1" xmlns="http://www.w3.org/2000/svg" xmlns:xlink="http://www.w3.org/1999/xlink" x="0px" y="0px"
	 viewBox="-4.4 18.4 16 16" style="enable-background:new -4.4 18.4 16 16;" xml:space="preserve">
<style type="text/css">
	.st0{fill:#060001;}
</style>
<g id="XMLID_56_">
	<path id="XMLID_113_" class="st0" d="M8.7,18.4H-1.4c-1,0-1.9,0.8-1.9,1.9v12.2c0,1,0.8,1.9,1.9,1.9H8.7c1,0,1.9-0.8,1.9-1.9V20.3
		C10.6,19.2,9.8,18.4,8.7,18.4z M9.6,32.4c0,0.5-0.4,0.9-0.9,0.9H-1.4c-0.5,0-0.9-0.4-0.9-0.9V20.3c0-0.5,0.4-0.9,0.9-0.9H8.7
		c0.5,0,0.9,0.4,0.9,0.9V32.4z"/>
	<path id="XMLID_60_" class="st0" d="M0.6,25.3c1.1,0,1.9-0.9,1.9-1.9s-0.9-1.9-1.9-1.9s-1.9,0.9-1.9,1.9S-0.5,25.3,0.6,25.3z
		 M0.6,22.4c0.5,0,0.9,0.4,0.9,0.9s-0.4,0.9-0.9,0.9s-0.9-0.4-0.9-0.9S0.1,22.4,0.6,22.4z"/>
	<rect id="XMLID_59_" x="4.6" y="22.3" class="st0" width="4" height="1"/>
	<rect id="XMLID_58_" x="-1.4" y="27.3" class="st0" width="10" height="1"/>
	<rect id="XMLID_57_" x="-1.4" y="30.3" class="st0" width="10" height="1"/>
</g>
</svg>
