<?xml version="1.0" encoding="utf-8"?>
<!-- Generator: Adobe Illustrator 19.0.0, SVG Export Plug-In . SVG Version: 6.00 Build 0)  -->
<svg version="1.1" id="图层_1" xmlns="http://www.w3.org/2000/svg" xmlns:xlink="http://www.w3.org/1999/xlink" x="0px" y="0px"
	 viewBox="-7.3 15.3 21.9 21.9" style="enable-background:new -7.3 15.3 21.9 21.9;" xml:space="preserve">
<path id="XMLID_56_" d="M10.6,16.2H-3.3c-2.2,0-4,1.8-4,4v12c0,2.2,1.8,4,4,4h13.9c2.2,0,4-1.8,4-4v-12C14.6,18,12.9,16.2,10.6,16.2
	z M-3.3,18.2h13.9c1,0,1.8,0.7,2,1.6L3.7,26l-8.9-6.3C-5,18.8-4.3,18.2-3.3,18.2z M10.6,34.2H-3.3c-1.1,0-2-0.9-2-2V22.1l9,6.3
	l8.9-6.2v10C12.6,33.3,11.7,34.2,10.6,34.2z"/>
</svg>
