<?xml version="1.0" encoding="utf-8"?>
<!-- Generator: Adobe Illustrator 19.0.0, SVG Export Plug-In . SVG Version: 6.00 Build 0)  -->
<svg version="1.1" id="图层_1" xmlns="http://www.w3.org/2000/svg" xmlns:xlink="http://www.w3.org/1999/xlink" x="0px" y="0px"
	 viewBox="-8 13.9 22 22" style="enable-background:new -8 13.9 22 22;" xml:space="preserve">
<path d="M9.9,16.4H-3.9c-2.3,0-4.1,1.8-4.1,4.1v8.7c0,2.3,1.8,4.1,4.1,4.1H9.9c2.3,0,4.1-1.8,4.1-4.1v-8.7
	C14,18.3,12.1,16.4,9.9,16.4z M9.9,17.4c0.5,0,0.9,0.1,1.4,0.3L3,26l-8.4-8.2c0.5-0.3,1-0.4,1.5-0.4H9.9z M13,29.2
	c0,1.7-1.4,3.1-3.1,3.1H-3.9c-1.7,0-3.1-1.4-3.1-3.1v-8.7c0-0.8,0.3-1.5,0.8-2L3,27.4l9-9.1c0.6,0.6,0.9,1.3,0.9,2.2V29.2z"/>
</svg>
