<?xml version="1.0" encoding="utf-8"?>
<!-- Generator: Adobe Illustrator 19.0.0, SVG Export Plug-In . SVG Version: 6.00 Build 0)  -->
<svg version="1.1" id="图层_1" xmlns="http://www.w3.org/2000/svg" xmlns:xlink="http://www.w3.org/1999/xlink" x="0px" y="0px"
	 viewBox="0 0 50 50" style="enable-background:new 0 0 50 50;" xml:space="preserve">
<style type="text/css">
	.st0{fill:#040000;}
</style>
<g id="XMLID_2_">
	<path id="XMLID_7_" class="st0" d="M42.5,17V9.4C42.5,7.5,40.9,6,39,6H3.5C1.7,6,0.1,7.5,0.1,9.4v20.3c0,1.9,1.5,3.4,3.4,3.4h4.9
		v9.2c0,0.7,0.4,1.3,1.1,1.6C9.8,44,10,44,10.2,44c0.5,0,0.9-0.2,1.2-0.5l9.7-10.4h6.7c1.9,3.8,5.9,6.5,10.4,6.5
		c6.4,0,11.7-5.2,11.7-11.7C49.9,22.9,46.8,18.7,42.5,17z M20.3,29.7c-0.5,0-0.9,0.2-1.2,0.5L11.9,38v-6.6c0-0.9-0.8-1.7-1.7-1.7
		l-6.7,0l0-20.3l35.5,0v6.8c-0.3,0-0.6,0-0.9,0c-6.4,0-11.7,5.2-11.7,11.7c0,0.6,0.1,1.2,0.2,1.9H20.3z M38.2,36.2
		c-4.6,0-8.3-3.7-8.3-8.3s3.7-8.3,8.3-8.3s8.3,3.7,8.3,8.3S42.7,36.2,38.2,36.2z"/>
	<polygon id="XMLID_6_" class="st0" points="37.4,28 32.3,28 32.3,29.7 37.4,29.7 39.1,29.7 39.1,22.9 37.4,22.9 	"/>
	<rect id="XMLID_5_" x="8.6" y="12.8" class="st0" width="20.3" height="1.7"/>
	<rect id="XMLID_4_" x="8.6" y="17.9" class="st0" width="15.2" height="1.7"/>
	<rect id="XMLID_3_" x="8.6" y="22.9" class="st0" width="11.9" height="1.7"/>
</g>
</svg>
