<?xml version="1.0" encoding="utf-8"?>
<!-- Generator: Adobe Illustrator 19.0.0, SVG Export Plug-In . SVG Version: 6.00 Build 0)  -->
<svg version="1.1" id="图层_1" xmlns="http://www.w3.org/2000/svg" xmlns:xlink="http://www.w3.org/1999/xlink" x="0px" y="0px"
	 viewBox="5.8 3.7 44 44" style="enable-background:new 5.8 3.7 44 44;" xml:space="preserve">
<g id="XMLID_2_">
	<circle id="XMLID_5_" cx="19.7" cy="7.9" r="4.1"/>
	<circle id="XMLID_4_" cx="34.6" cy="7.9" r="4.1"/>
	<path id="XMLID_3_" d="M40.6,20.8c1.7,0,3-1.3,3-3l0,0c0-1.7-1.3-3-3-3H12.5c-1.7,0-3,1.3-3,3l0,0c0,1.7,1.3,3,3,3h11.3v5.1H12.5
		c-1.7,0-3,1.3-3,3s1.3,3,3,3h11.3v12.7c0,1.7,1.4,3.1,3.1,3.1s3.1-1.4,3.1-3.1V31.9h10.6c1.7,0,3-1.3,3-3s-1.3-3-3-3H30v-5.1H40.6z
		"/>
</g>
</svg>
