<?xml version="1.0" encoding="utf-8"?>
<!-- Generator: Adobe Illustrator 19.0.0, SVG Export Plug-In . SVG Version: 6.00 Build 0)  -->
<svg version="1.1" id="图层_1" xmlns="http://www.w3.org/2000/svg" xmlns:xlink="http://www.w3.org/1999/xlink" x="0px" y="0px"
	 viewBox="-5.6 17.4 18 18" style="enable-background:new -5.6 17.4 18 18;" xml:space="preserve">
<style type="text/css">
	.st0{fill:#040000;}
</style>
<g id="XMLID_56_">
	<path id="XMLID_58_" class="st0" d="M3.4,17.4c-5,0-9,4-9,9s4,9,9,9s9-4,9-9S8.4,17.4,3.4,17.4z M3.4,34.4c-4.4,0-8-3.6-8-8
		s3.6-8,8-8s8,3.6,8,8S7.8,34.4,3.4,34.4z"/>
	<polygon id="XMLID_57_" class="st0" points="3.9,25.9 6.9,25.9 6.9,24.9 4.2,24.9 6.9,22.5 6.3,22 3.8,24.1 3.3,24.1 0.8,22 
		0.2,22.5 3,24.9 -0.1,24.9 -0.1,25.9 2.9,25.9 2.9,27.9 -1.1,27.9 -1.1,28.9 2.9,28.9 2.9,32.9 3.9,32.9 3.9,28.9 7.9,28.9 
		7.9,27.9 3.9,27.9 	"/>
</g>
</svg>
