<svg xmlns="http://www.w3.org/2000/svg" xmlns:xlink="http://www.w3.org/1999/xlink" preserveAspectRatio="xMidYMid" width="50" height="50" viewBox="0 0 50 50">
  <defs>
    <style>
      .cls-1 {
        fill: #939599;
        fill-rule: evenodd;
      }
    </style>
  </defs>
  <path d="M43.000,49.000 L8.000,49.000 C6.895,49.000 6.000,48.105 6.000,47.000 L6.000,11.942 C6.000,10.838 6.895,9.942 8.000,9.942 L12.130,9.942 L11.683,11.534 C11.683,11.534 10.285,13.497 13.638,13.434 C16.992,13.371 36.803,13.434 36.803,13.434 C36.803,13.434 39.565,13.674 38.479,11.262 C38.225,10.699 38.034,10.276 37.882,9.942 L43.000,9.942 C44.105,9.942 45.000,10.838 45.000,11.942 L45.000,47.000 C45.000,48.105 44.105,49.000 43.000,49.000 ZM33.857,32.385 L26.429,32.385 L26.429,30.539 L33.857,30.539 L33.857,26.846 L28.286,26.846 L32.000,19.462 L28.286,19.462 L24.571,25.000 L20.857,19.462 L17.143,19.462 L20.857,26.846 L15.286,26.846 L15.286,30.539 L22.714,30.539 L22.714,32.385 L15.286,32.385 L15.286,36.077 L22.714,36.077 L22.714,41.615 L26.429,41.615 L26.429,36.077 L33.857,36.077 L33.857,32.385 ZM16.054,6.158 C16.054,5.858 16.304,5.615 16.612,5.615 L18.341,5.615 L19.223,1.543 C19.223,1.243 19.474,1.000 19.782,1.000 L28.244,1.000 C28.552,1.000 28.802,1.243 28.802,1.543 L29.684,5.615 L31.972,5.615 C32.281,5.615 32.531,5.858 32.531,6.158 L33.248,8.774 L15.390,8.579 L16.054,6.158 Z" class="cls-1"/>
</svg>
