<?xml version="1.0" encoding="utf-8"?>
<!-- Generator: Adobe Illustrator 19.0.0, SVG Export Plug-In . SVG Version: 6.00 Build 0)  -->
<svg version="1.1" id="图层_1" xmlns="http://www.w3.org/2000/svg" xmlns:xlink="http://www.w3.org/1999/xlink" x="0px" y="0px"
	 viewBox="-8.7 13.9 24.9 24.9" style="enable-background:new -8.7 13.9 24.9 24.9;" xml:space="preserve">
<g id="XMLID_56_">
	<path id="XMLID_60_" d="M15.1,19.3h1v-2.5H-4.2c-2.5,0-4.5,2-4.5,4.5v11.3c0,2.5,2,4.5,4.5,4.5h20.3v-2.2h-1
		c-0.8,0-1.4-0.7-1.4-1.5s0.6-1.4,1.4-1.5h1v-3h-1c-0.8,0-1.4-0.7-1.4-1.5c0-0.8,0.6-1.4,1.4-1.5h1v-3.6h-1c-0.8,0-1.4-0.7-1.4-1.5
		C13.7,20,14.3,19.4,15.1,19.3z M13.9,24c-1.3,0.5-2.2,1.8-2.2,3.2c0,1.3,0.7,2.4,1.7,3c-1,0.6-1.7,1.7-1.7,3c0,0.6,0.2,1.2,0.5,1.7
		H-4.2c-1.4,0-2.5-1.1-2.5-2.5V21.2c0-1.4,1.1-2.5,2.5-2.5h16.6c-0.4,0.6-0.7,1.3-0.7,2C11.7,22.3,12.6,23.5,13.9,24z"/>
	<circle id="XMLID_59_" cx="-0.3" cy="22.4" r="1.5"/>
	<circle id="XMLID_58_" cx="6.7" cy="22.4" r="1.5"/>
	<path id="XMLID_57_" d="M8.2,26.9c0.6,0,1-0.4,1-1s-0.4-1-1-1h-10c-0.6,0-1,0.4-1,1s0.4,1,1,1h4v2h-4c-0.6,0-1,0.4-1,1s0.4,1,1,1h4
		v1c0,0.6,0.4,1,1,1s1-0.4,1-1v-1h4c0.6,0,1-0.4,1-1s-0.4-1-1-1h-4v-2C4.2,26.9,8.2,26.9,8.2,26.9z"/>
</g>
</svg>
