<?xml version="1.0" encoding="utf-8"?>
<!-- Generator: Adobe Illustrator 19.0.0, SVG Export Plug-In . SVG Version: 6.00 Build 0)  -->
<svg version="1.1" id="图层_1" xmlns="http://www.w3.org/2000/svg" xmlns:xlink="http://www.w3.org/1999/xlink" x="0px" y="0px"
	 viewBox="-1.8 15.8 20.1 20.1" style="enable-background:new -1.8 15.8 20.1 20.1;" xml:space="preserve">
<g id="XMLID_67_">
	<path id="XMLID_69_" d="M17.7,23.7l0.4-0.1V21c0-2.4-2-4.4-4.4-4.4H2.6c-2.4,0-4.4,2-4.4,4.4v2.6l0.4,0.1c0.9,0.2,1.5,1,1.5,1.9
		s-0.6,1.7-1.5,1.9l-0.4,0.1v2.6c0,2.4,2,4.4,4.4,4.4h11.2c2.4,0,4.4-2,4.4-4.4v-2.6l-0.4-0.1c-0.9-0.2-1.5-1-1.5-1.9
		S16.9,23.9,17.7,23.7z M17.1,28.3v1.9c0,1.9-1.5,3.4-3.4,3.4H2.6c-1.9,0-3.4-1.5-3.4-3.4v-1.9c1.1-0.4,1.9-1.5,1.9-2.8
		c0-1.2-0.8-2.3-1.9-2.8v-1.9c0-1.9,1.5-3.4,3.4-3.4h11.2c1.9,0,3.4,1.5,3.4,3.4v1.9c-1.1,0.4-1.9,1.5-1.9,2.7
		C15.2,26.8,16,27.9,17.1,28.3z"/>
	<polygon id="XMLID_68_" points="10.4,20.3 8.2,24.9 6.1,20.3 4.5,20.3 7.1,25.1 5,25.1 5,26.2 7.5,26.2 7.5,27.7 5,27.7 5,28.8 
		7.5,28.8 7.5,30.9 8.8,30.9 8.8,28.8 11.3,28.8 11.3,27.7 8.9,27.7 8.9,26.2 11.2,26.2 11.2,25.1 9.2,25.1 11.8,20.3 	"/>
</g>
</svg>
