<?xml version="1.0" encoding="utf-8"?>
<!-- Generator: Adobe Illustrator 19.0.0, SVG Export Plug-In . SVG Version: 6.00 Build 0)  -->
<svg version="1.1" id="图层_1" xmlns="http://www.w3.org/2000/svg" xmlns:xlink="http://www.w3.org/1999/xlink" x="0px" y="0px"
	 viewBox="-6.8 16 21.9 21.9" style="enable-background:new -6.8 16 21.9 21.9;" xml:space="preserve">
<g id="XMLID_55_">
	<path id="XMLID_57_" d="M11.2,16.9H-2.8c-2.2,0-4,1.8-4,4v12c0,2.2,1.8,4,4,4h13.9c2.2,0,4-1.8,4-4v-12
		C15.2,18.6,13.3,16.9,11.2,16.9z M-0.8,18.9h10v6c0,0.8-0.7,1.5-1.5,1.5h-7c-0.8,0-1.5-0.7-1.5-1.5C-0.8,24.9-0.8,18.9-0.8,18.9z
		 M13.2,32.9c0,1.1-0.9,2-2,2H-2.8c-1.1,0-2-0.9-2-2v-12c0-1.1,0.9-2,2-2h1v6c0,1.4,1.1,2.5,2.5,2.5h7c1.4,0,2.5-1.1,2.5-2.5v-6h0.9
		c1.1,0,2,0.9,2,2C13.1,20.9,13.1,32.9,13.2,32.9z"/>
	<rect id="XMLID_56_" x="6.2" y="20.9" width="1" height="3"/>
</g>
</svg>
