<?xml version="1.0" encoding="utf-8"?>
<!-- Generator: Adobe Illustrator 19.0.0, SVG Export Plug-In . SVG Version: 6.00 Build 0)  -->
<svg version="1.1" id="图层_1" xmlns="http://www.w3.org/2000/svg" xmlns:xlink="http://www.w3.org/1999/xlink" x="0px" y="0px"
	 viewBox="-5.5 17.2 18.6 18.6" style="enable-background:new -5.5 17.2 18.6 18.6;" xml:space="preserve">
<g id="XMLID_56_">
	<path id="XMLID_111_" d="M9.5,20.5H1c-1.5,0-2.7,1.2-2.7,2.7v9.9c0,1.5,1.2,2.7,2.7,2.7h8.5c1.5,0,2.7-1.2,2.7-2.7v-9.9
		C12.2,21.7,11,20.5,9.5,20.5z M11.2,33.1c0,0.9-0.8,1.7-1.7,1.7H1c-0.9,0-1.7-0.8-1.7-1.7v-9.9c0-0.9,0.8-1.7,1.7-1.7h8.5
		c0.9,0,1.7,0.8,1.7,1.7V33.1z"/>
	<path id="XMLID_60_" d="M-2.5,18.3c0.6,0,1.9,0,3.2,0c2.7,0,6.1,0,6.1,0s1.3,0.2,1.4,1h1c0-1.3-1.4-1.9-2.3-2c-0.3,0-7.6-0.1-9.5,0
		c-1.8,0.1-2.3,1.5-2.3,2.2c0,0.4,0,10.3,0,11.7c0,1.4,1.2,2.1,1.8,2.2l0.2-1c-0.1,0-1-0.3-1-1.3c0-1.4,0-11.5,0-11.6
		C-3.9,19.4-3.8,18.4-2.5,18.3z"/>
	<rect id="XMLID_59_" x="1.2" y="24.5" width="8" height="1"/>
	<rect id="XMLID_58_" x="1.2" y="27.5" width="8" height="1"/>
	<rect id="XMLID_57_" x="1.2" y="30.5" width="8" height="1"/>
</g>
</svg>
