<?xml version="1.0" encoding="utf-8"?>
<!-- Generator: Adobe Illustrator 19.0.0, SVG Export Plug-In . SVG Version: 6.00 Build 0)  -->
<svg version="1.1" id="图层_1" xmlns="http://www.w3.org/2000/svg" xmlns:xlink="http://www.w3.org/1999/xlink" x="0px" y="0px"
	 viewBox="0 0 18.1 18.1" style="enable-background:new 0 0 18.1 18.1;" xml:space="preserve">
<g id="XMLID_31_">
	<path id="XMLID_98_" d="M11.5,4H5v7v0v3.8h1V11h5.5c1.4,0,2.5-1.1,2.5-2.5v-2C14,5.1,12.9,4,11.5,4z M13,8.5c0,0.8-0.7,1.5-1.5,1.5
		H6V5h5.5C12.4,5,13,5.7,13,6.5V8.5z"/>
	<path id="XMLID_32_" d="M15.5,0h-13C1.1,0,0,1.1,0,2.5v13C0,16.9,1.1,18,2.5,18h13c1.4,0,2.5-1.1,2.5-2.5v-13C18,1.1,16.9,0,15.5,0
		z M17,15.5c0,0.8-0.7,1.5-1.5,1.5h-13C1.7,17,1,16.4,1,15.5v-13C1,1.7,1.7,1,2.5,1h13C16.4,1,17,1.7,17,2.5V15.5z"/>
</g>
</svg>
