<?xml version="1.0" encoding="utf-8"?>
<!-- Generator: Adobe Illustrator 19.0.0, SVG Export Plug-In . SVG Version: 6.00 Build 0)  -->
<svg version="1.1" id="图层_1" xmlns="http://www.w3.org/2000/svg" xmlns:xlink="http://www.w3.org/1999/xlink" x="0px" y="0px"
	 viewBox="-7.8 14.9 21.1 21.1" style="enable-background:new -7.8 14.9 21.1 21.1;" xml:space="preserve">
<path d="M12.5,35.2c-0.1-0.2-3-5.5-8.2-6.6c3-0.7,5.3-3.5,5.3-6.8c0-3.8-3.1-7-7-7c-3.8,0-7,3.1-7,7c0,3.2,2.2,5.9,5.1,6.7
	c-5.4,1-7.8,6.4-7.9,6.6l-0.3,0.7h20.3L12.5,35.2z M-3.3,21.9c0-3.3,2.7-6,6-6c3.3,0,6,2.7,6,6c0,3.3-2.7,6-6,6
	C-0.6,27.9-3.3,25.2-3.3,21.9z M-5.9,34.9c0.9-1.6,3.6-5.5,8.3-5.5c0,0,0,0,0,0c4.6,0,7.6,3.9,8.7,5.5H-5.9z"/>
</svg>
