<?xml version="1.0" encoding="utf-8"?>
<!-- Generator: Adobe Illustrator 19.0.0, SVG Export Plug-In . SVG Version: 6.00 Build 0)  -->
<svg version="1.1" id="图层_1" xmlns="http://www.w3.org/2000/svg" xmlns:xlink="http://www.w3.org/1999/xlink" x="0px" y="0px"
	 viewBox="-4.3 18.4 15.8 15.8" style="enable-background:new -4.3 18.4 15.8 15.8;" xml:space="preserve">
<style type="text/css">
	.st0{fill:#040000;}
</style>
<path id="XMLID_56_" class="st0" d="M6.3,30.3c2.1-1,3.6-3.1,3.6-5.6c0-3.4-2.8-6.2-6.2-6.2s-6.3,2.7-6.3,6.2c0,2.6,1.6,4.8,3.8,5.7
	c-2.7,1-4.6,3.1-4.7,3.2l0.7,0.7c0,0,3.2-3.4,6.7-3.4H4c3.5,0.1,6,3.3,6,3.3l0.8-0.6C10.7,33.5,9,31.3,6.3,30.3z M-1.6,24.7
	c0-2.9,2.3-5.2,5.2-5.2s5.2,2.3,5.2,5.2s-2.3,5.2-5.2,5.2C0.8,29.9-1.6,27.6-1.6,24.7z"/>
</svg>
