<?xml version="1.0" encoding="utf-8"?>
<!-- Generator: Adobe Illustrator 19.0.0, SVG Export Plug-In . SVG Version: 6.00 Build 0)  -->
<svg version="1.1" id="图层_1" xmlns="http://www.w3.org/2000/svg" xmlns:xlink="http://www.w3.org/1999/xlink" x="0px" y="0px"
	 viewBox="8.8 -2.9 53.8 53.8" style="enable-background:new 8.8 -2.9 53.8 53.8;" xml:space="preserve">
<style type="text/css">
	.st0{fill:#040000;}
</style>
<g id="XMLID_2_">
	<rect id="XMLID_11_" x="35.6" y="14.9" class="st0" width="7" height="3"/>
	<path id="XMLID_7_" class="st0" d="M35.6,3.9c-11.1,0-20.1,9-20.1,20.1s9,20.1,20.1,20.1s20.1-9,20.1-20.1
		C55.7,12.9,46.7,3.9,35.6,3.9z M27.6,34.5c0,0.8-0.7,1.5-1.5,1.5s-1.5-0.7-1.5-1.5V19.4l-2.8,2.7c-0.5,0.5-1.4,0.5-2,0
		s-0.5-1.4,0-2l8.6-8.3c0.5-0.5,1.4-0.5,2,0s0.5,1.4,0,2l-2.8,2.8v0.1C27.6,16.7,27.6,34.5,27.6,34.5z M47.5,34
		c-0.5,0.5-1.4,0.5-2,0l-5-5.1V35c0,0.6-0.5,1-1,1h-0.9c-0.6,0-1-0.5-1-1v-6l-4.9,5c-0.5,0.5-1.4,0.6-2,0s-0.6-1.4,0-2l6-6.1h-5.1
		c-0.6,0-1-0.5-1-1V24c0-0.6,0.5-1,1-1h6v-2h-5.1v-9h13.1v9h-5v2h6c0.6,0,1,0.5,1,1v1c0,0.6-0.5,1-1,1h-5l6,6.1
		C48.1,32.6,48.1,33.5,47.5,34z"/>
	<path id="XMLID_6_" class="st0" d="M43.9,46.3c-2.6,1-5.4,1.5-8.3,1.5c-13.1,0-23.8-10.7-23.8-23.8c0-4,1-8,3-11.5
		c0.4-0.7,0.1-1.6-0.6-2s-1.6-0.1-2,0.6C10,15,8.8,19.5,8.8,24c0,14.8,12,26.8,26.8,26.8c3.2,0,6.4-0.6,9.3-1.7
		c0.8-0.3,1.2-1.2,0.9-1.9C45.5,46.4,44.7,46,43.9,46.3z"/>
	<path id="XMLID_5_" class="st0" d="M35.6-2.7C32-2.7,28.5-2,25.3-0.6c-0.8,0.3-1.1,1.2-0.8,2s1.2,1.1,2,0.8c2.9-1.2,6-1.8,9.2-1.8
		c13.1,0,23.8,10.7,23.8,23.8c0,3.4-0.7,6.7-2.1,9.7c-0.3,0.8,0,1.6,0.8,2c0.2,0.1,0.4,0.1,0.6,0.1c0.6,0,1.1-0.3,1.4-0.9
		c1.5-3.4,2.3-7.1,2.3-10.9C62.3,9.3,50.3-2.7,35.6-2.7z"/>
	<circle id="XMLID_4_" class="st0" cx="19" cy="5.9" r="1.5"/>
	<circle id="XMLID_3_" class="st0" cx="53" cy="42.9" r="1.5"/>
</g>
</svg>
