<?xml version="1.0" encoding="utf-8"?>
<!-- Generator: Adobe Illustrator 19.0.0, SVG Export Plug-In . SVG Version: 6.00 Build 0)  -->
<svg version="1.1" id="图层_1" xmlns="http://www.w3.org/2000/svg" xmlns:xlink="http://www.w3.org/1999/xlink" x="0px" y="0px"
	 viewBox="0 0 19.1 19.1" style="enable-background:new 0 0 19.1 19.1;" xml:space="preserve">
<g id="XMLID_123_">
	<path id="XMLID_163_" d="M16.5,0.5h-14C1.1,0.5,0,1.7,0,3v13c0,1.4,1.1,2.5,2.5,2.5h14c1.4,0,2.5-1.1,2.5-2.5V3
		C19,1.7,17.9,0.5,16.5,0.5z M2.5,1.5h14C17.3,1.5,18,2.2,18,3v6.9c-0.4-0.4-0.8-0.9-1.1-1.2c-0.3-0.4-0.6-0.6-0.8-0.6
		c-0.5,0-0.9,0.4-1,0.6c-1.1,1.7-2.6,3.6-2.9,3.9c-0.1,0.1-0.3,0.1-0.4,0c0,0-2.5-2.4-3-3C8.6,9.3,8.3,9.3,8,9.3
		c-0.4,0-0.7,0.3-0.8,0.4L1,14.1V3C1,2.2,1.7,1.5,2.5,1.5z M16.5,17.5h-14C1.7,17.5,1,16.9,1,16v-0.7l6.8-4.9l0.1-0.1
		c0,0,0.1-0.1,0.1-0.1c0,0,0,0,0.1,0.1c0.5,0.6,2.9,2.9,3,3c0.2,0.2,0.9,0.6,1.6,0.1c0.6-0.4,2.5-3.3,3.1-4.1c0,0,0.1-0.1,0.1-0.2
		c0,0,0,0,0.1,0.1c0.6,0.6,1.5,1.6,1.9,2V16C18,16.9,17.3,17.5,16.5,17.5z"/>
	<path id="XMLID_136_" d="M5,7.5c1.1,0,2-0.9,2-2s-0.9-2-2-2s-2,0.9-2,2S3.9,7.5,5,7.5z M5,4.5c0.6,0,1,0.4,1,1s-0.4,1-1,1
		s-1-0.4-1-1S4.5,4.5,5,4.5z"/>
</g>
</svg>
