<?xml version="1.0" encoding="utf-8"?>
<!-- Generator: Adobe Illustrator 19.0.0, SVG Export Plug-In . SVG Version: 6.00 Build 0)  -->
<svg version="1.1" id="图层_1" xmlns="http://www.w3.org/2000/svg" xmlns:xlink="http://www.w3.org/1999/xlink" x="0px" y="0px"
	 viewBox="1 0.9 50.1 50.1" style="enable-background:new 1 0.9 50.1 50.1;" xml:space="preserve">
<g id="XMLID_2_">
	<path id="XMLID_7_" d="M51,16.2L51,16.2c0-4.6-3.7-8.3-8.3-8.3H9.3C4.8,7.9,1,11.6,1,16.2l0,0H51z"/>
	<rect id="XMLID_6_" x="1" y="21.2" width="50" height="2"/>
	<path id="XMLID_3_" d="M1,25.4v9.2c0,4.6,3.8,8.3,8.3,8.3h33.4c4.6,0,8.3-3.7,8.3-8.3v-9.2H1z M48,36.1c0,1.2-0.9,2.1-2.1,2.1h-6.8
		c-1.2,0-2.1-0.9-2.1-2.1v-1.8c0-1.2,0.9-2.1,2.1-2.1h6.8c1.2,0,2.1,0.9,2.1,2.1V36.1z"/>
</g>
</svg>
