<?xml version="1.0" encoding="utf-8"?>
<!-- Generator: Adobe Illustrator 19.0.0, SVG Export Plug-In . SVG Version: 6.00 Build 0)  -->
<svg version="1.1" id="图层_1" xmlns="http://www.w3.org/2000/svg" xmlns:xlink="http://www.w3.org/1999/xlink" x="0px" y="0px"
	 viewBox="0 0 15.4 15.4" style="enable-background:new 0 0 15.4 15.4;" xml:space="preserve">
<g id="XMLID_4_">
	<path id="XMLID_71_" d="M13.8,2.8h-1.5V2.1c0-1.1-0.9-1.9-1.9-1.9H5.1C4,0.2,3.1,1,3.1,2.1v0.7H1.6c-0.8,0-1.5,0.7-1.5,1.5v3.8
		c0,0.8,0.7,1.5,1.5,1.5H3v4.1c0,0.8,0.7,1.5,1.5,1.5h6.4c0.8,0,1.5-0.7,1.5-1.5V9.6h1.4c0.8,0,1.5-0.7,1.5-1.5V4.3
		C15.3,3.5,14.7,2.8,13.8,2.8z M4.1,2.1c0-0.5,0.4-0.9,0.9-0.9h5.3c0.5,0,0.9,0.4,0.9,0.9v0.7H4.1V2.1z M11.4,13.7
		c0,0.3-0.2,0.5-0.5,0.5H4.5C4.2,14.2,4,14,4,13.7V8.5C4,8.2,4.2,8,4.5,8h6.4c0.3,0,0.5,0.2,0.5,0.5V13.7z M14.3,8.1
		c0,0.3-0.2,0.5-0.5,0.5h-1.4V8.5c0-0.8-0.7-1.5-1.5-1.5H4.5C3.7,7,3,7.7,3,8.5v0.1H1.6c-0.3,0-0.5-0.2-0.5-0.5V4.3
		c0-0.3,0.2-0.5,0.5-0.5h1.6h1h7h1h1.6c0.3,0,0.5,0.2,0.5,0.5V8.1z"/>
	<polygon id="XMLID_70_" points="4.7,11.1 4.7,13.4 6.9,13.4 6.9,12.4 5.7,12.4 5.7,11.1 5.7,9.8 6.9,9.8 6.9,8.8 4.7,8.8 	"/>
	<polygon id="XMLID_69_" points="8.5,9.8 9.7,9.8 9.7,11.1 9.7,12.4 8.5,12.4 8.5,13.4 10.7,13.4 10.7,11.1 10.7,8.8 8.5,8.8 	"/>
</g>
</svg>
