<?xml version="1.0" encoding="utf-8"?>
<!-- Generator: Adobe Illustrator 19.0.0, SVG Export Plug-In . SVG Version: 6.00 Build 0)  -->
<svg version="1.1" id="图层_1" xmlns="http://www.w3.org/2000/svg" xmlns:xlink="http://www.w3.org/1999/xlink" x="0px" y="0px"
	 viewBox="0 0 25.3 25.3" style="enable-background:new 0 0 25.3 25.3;" xml:space="preserve">
<g id="XMLID_171_">
	<path id="XMLID_174_" d="M21.9,4.4h-1.6V3.2c0-1.7-1.4-3.1-3.1-3.1H9.1c-1.7,0-3.1,1.4-3.1,3.1v1.2H4.4c-1.5,0-2.7,1.2-2.7,2.7v5.6
		c0,1.5,1.2,2.7,2.7,2.7h1.6v6.8c0,1.7,1.4,3.1,3.1,3.1h8.2c1.7,0,3.1-1.4,3.1-3.1v-6.8h1.6c1.5,0,2.7-1.2,2.7-2.7V7.1
		C24.6,5.6,23.4,4.4,21.9,4.4z M7.9,3.2c0-0.6,0.5-1.1,1.1-1.1h8.2c0.6,0,1.1,0.5,1.1,1.1v1.2H7.9V3.2z M18.4,22.1
		c0,0.6-0.5,1.1-1.1,1.1H9.1c-0.6,0-1.1-0.5-1.1-1.1v-8.2c0-0.6,0.5-1.1,1.1-1.1h8.2c0.6,0,1.1,0.5,1.1,1.1V22.1z M22.6,12.6
		c0,0.4-0.3,0.7-0.7,0.7h-1.6c-0.3-1.4-1.5-2.5-3.1-2.5H9.1c-1.5,0-2.8,1.1-3.1,2.5H4.4c-0.4,0-0.7-0.3-0.7-0.7V7.1
		c0-0.4,0.3-0.7,0.7-0.7h1.6h2h10.4h2h1.6c0.4,0,0.7,0.3,0.7,0.7V12.6z"/>
	<rect id="XMLID_173_" x="9.9" y="16.2" width="6" height="1"/>
	<rect id="XMLID_172_" x="9.9" y="19.2" width="6" height="1"/>
</g>
</svg>
