<?xml version="1.0" encoding="utf-8"?>
<!-- Generator: Adobe Illustrator 19.0.0, SVG Export Plug-In . SVG Version: 6.00 Build 0)  -->
<svg version="1.1" id="图层_1" xmlns="http://www.w3.org/2000/svg" xmlns:xlink="http://www.w3.org/1999/xlink" x="0px" y="0px"
	 viewBox="-4.4 18.3 16.1 16.1" style="enable-background:new -4.4 18.3 16.1 16.1;" xml:space="preserve">
<style type="text/css">
	.st0{fill:#040000;}
</style>
<path id="XMLID_56_" class="st0" d="M11.4,32.5l-6.3-6.2l6.2-6.2c0.4-0.4,0.4-1.1,0-1.5c-0.4-0.4-1.1-0.4-1.5,0l-6.2,6.2l-6.2-6
	c-0.4-0.4-1.1-0.4-1.5,0s-0.4,1.1,0,1.5l6.2,6.1L-4,32.6c-0.4,0.4-0.4,1.1,0,1.5c0.4,0.4,1.1,0.4,1.5,0l6.1-6.2l6.3,6.2
	c0.4,0.4,1.1,0.4,1.5,0C11.8,33.6,11.8,33,11.4,32.5z"/>
</svg>
