<?xml version="1.0" encoding="utf-8"?>
<!-- Generator: Adobe Illustrator 19.0.0, SVG Export Plug-In . SVG Version: 6.00 Build 0)  -->
<svg version="1.1" id="图层_1" xmlns="http://www.w3.org/2000/svg" xmlns:xlink="http://www.w3.org/1999/xlink" x="0px" y="0px"
	 viewBox="0 0 19.7 19.7" style="enable-background:new 0 0 19.7 19.7;" xml:space="preserve">
<g id="XMLID_121_">
	<path id="XMLID_137_" d="M15.3,2.4h-12l2-1.5c0.2-0.2,0.3-0.5,0.1-0.7C5.3,0,4.9-0.1,4.7,0.1L1.5,2.5C1.3,2.6,1.3,2.8,1.3,2.9
		s0.1,0.3,0.2,0.4l3.2,2.4C4.8,5.8,4.9,5.8,5,5.8c0.2,0,0.3-0.1,0.4-0.2c0.2-0.2,0.1-0.5-0.1-0.7l-2-1.5h12c0.8,0,1.5,0.7,1.5,1.5
		v12.2c0,0.8-0.7,1.5-1.5,1.5H3.2v1h12.1c1.4,0,2.5-1.1,2.5-2.5V4.9C17.8,3.6,16.6,2.4,15.3,2.4z"/>
	<rect id="XMLID_136_" x="6.8" y="5.5" width="1" height="2"/>
	<rect id="XMLID_123_" x="10.8" y="5.5" width="1" height="2"/>
	<polygon id="XMLID_122_" points="4.8,11.5 4.8,12.5 8.8,12.5 8.8,16.5 9.8,16.5 9.8,12.5 13.8,12.5 13.8,11.5 9.8,11.5 9.8,9.5 
		13.8,9.5 13.8,8.5 4.8,8.5 4.8,9.5 8.8,9.5 8.8,11.5 	"/>
</g>
</svg>
