<?xml version="1.0" encoding="utf-8"?>
<!-- Generator: Adobe Illustrator 19.0.0, SVG Export Plug-In . SVG Version: 6.00 Build 0)  -->
<svg version="1.1" id="图层_1" xmlns="http://www.w3.org/2000/svg" xmlns:xlink="http://www.w3.org/1999/xlink" x="0px" y="0px"
	 viewBox="0 0 21.2 21.2" style="enable-background:new 0 0 21.2 21.2;" xml:space="preserve">
<g id="XMLID_120_">
	<path id="XMLID_123_" d="M19.6,1.3h-18C0.7,1.3,0.1,2,0.1,2.8v12v5c0,0.2,0.2,0.4,0.4,0.5c0,0,0.1,0,0.1,0C0.8,20.3,1,20.2,1,20
		c0.7-1.6,2.8-2.4,3.5-2.7c0.1,0,0.2,0,0.3,0h14.8c0.8,0,1.5-0.7,1.5-1.5v-13C21.1,2,20.4,1.3,19.6,1.3z M20.1,15.8
		c0,0.3-0.2,0.5-0.5,0.5h-15l-0.1,0l-0.1,0c-0.1,0-2,0.6-3.4,1.9v-3.4v-12c0-0.3,0.2-0.5,0.5-0.5h18c0.3,0,0.5,0.2,0.5,0.5V15.8z"/>
	<rect id="XMLID_122_" x="5.6" y="6.3" width="10" height="1"/>
	<rect id="XMLID_121_" x="5.6" y="9.3" width="10" height="1"/>
</g>
</svg>
