<?xml version="1.0" encoding="utf-8"?>
<!-- Generator: Adobe Illustrator 19.0.0, SVG Export Plug-In . SVG Version: 6.00 Build 0)  -->
<svg version="1.1" id="图层_1" xmlns="http://www.w3.org/2000/svg" xmlns:xlink="http://www.w3.org/1999/xlink" x="0px" y="0px"
	 viewBox="0 0 21 21" style="enable-background:new 0 0 21 21;" xml:space="preserve">
<g id="XMLID_119_">
	<rect id="XMLID_123_" x="6.1" y="4.5" width="8" height="1"/>
	<rect id="XMLID_122_" x="6.1" y="7.5" width="8" height="1"/>
	<polygon id="XMLID_121_" points="20.4,10.9 19.7,10.2 16.6,13.3 13.4,10.2 12.7,10.9 15.9,14 12.7,17.2 13.4,17.9 16.6,14.7 
		19.7,17.9 20.4,17.2 17.3,14 	"/>
	<path id="XMLID_120_" d="M18.6,19.5c0,0.3-0.2,0.5-0.5,0.5h-16c-0.3,0-0.5-0.2-0.5-0.5v-18C1.6,1.2,1.8,1,2.1,1h16
		c0.3,0,0.5,0.2,0.5,0.5v5h1v-5c0-0.8-0.7-1.5-1.5-1.5h-16C1.3,0,0.6,0.7,0.6,1.5v18c0,0.8,0.7,1.5,1.5,1.5h16
		c0.8,0,1.5-0.7,1.5-1.5v-1h-1V19.5z"/>
</g>
</svg>
