<?xml version="1.0" encoding="utf-8"?>
<!-- Generator: Adobe Illustrator 19.0.0, SVG Export Plug-In . SVG Version: 6.00 Build 0)  -->
<svg version="1.1" id="图层_1" xmlns="http://www.w3.org/2000/svg" xmlns:xlink="http://www.w3.org/1999/xlink" x="0px" y="0px"
	 viewBox="-7.2 15.5 21.6 21.6" style="enable-background:new -7.2 15.5 21.6 21.6;" xml:space="preserve">
<style type="text/css">
	.st0{fill:#060001;}
</style>
<g>
	<path class="st0" d="M12.4,19.8c-0.1,0-6.4-0.4-8.2-3.5l-0.4-0.7l-0.5,0.6c0,0-2.9,3.7-8.2,3.6l-0.5,0v10.3l0,0.1
		c0,0.1,1.5,6.7,8.8,6.7c0.1,0,0.2,0,0.3,0c7.5-0.2,9-6.5,9-6.5l0.1-10.6L12.4,19.8z M11.8,30.3c-0.1,0.6-1.6,5.5-8,5.7
		c-6.5,0.2-7.9-5.3-8.1-5.9v-9.3c4.3-0.1,7-2.4,8-3.5c2,2.6,6.6,3.3,8.1,3.4L11.8,30.3z"/>
	<polygon class="st0" points="-0.7,25.8 -1.4,26.5 2.8,30.7 9.2,24.3 8.5,23.6 2.8,29.3 	"/>
</g>
</svg>
