<?xml version="1.0" encoding="utf-8"?>
<!-- Generator: Adobe Illustrator 19.0.0, SVG Export Plug-In . SVG Version: 6.00 Build 0)  -->
<svg version="1.1" id="图层_1" xmlns="http://www.w3.org/2000/svg" xmlns:xlink="http://www.w3.org/1999/xlink" x="0px" y="0px"
	 viewBox="-5.6 17.1 18.6 18.6" style="enable-background:new -5.6 17.1 18.6 18.6;" xml:space="preserve">
<g>
	<path d="M-4.6,24.9H12c0.4,0,0.8-0.2,0.9-0.6c0.2-0.4,0.1-0.8-0.2-1.1l-4.4-5c-0.4-0.4-1-0.4-1.4-0.1c-0.4,0.4-0.4,1-0.1,1.4
		l2.9,3.3H-4.6c-0.6,0-1,0.4-1,1S-5.1,24.9-4.6,24.9z"/>
	<path d="M12,27.1H-4.6c-0.4,0-0.8,0.2-0.9,0.6c-0.2,0.4-0.1,0.8,0.2,1.1l4.4,5c0.2,0.2,0.5,0.3,0.7,0.3c0.2,0,0.5-0.1,0.7-0.3
		c0.4-0.4,0.4-1,0.1-1.4l-2.9-3.3H12c0.6,0,1-0.4,1-1S12.5,27.1,12,27.1z"/>
</g>
</svg>
