<?xml version="1.0" encoding="utf-8"?>
<!-- Generator: Adobe Illustrator 19.0.0, SVG Export Plug-In . SVG Version: 6.00 Build 0)  -->
<svg version="1.1" id="图层_1" xmlns="http://www.w3.org/2000/svg" xmlns:xlink="http://www.w3.org/1999/xlink" x="0px" y="0px"
	 viewBox="0 0 50 50" style="enable-background:new 0 0 50 50;" xml:space="preserve">
<style type="text/css">
	.st0{fill:#040000;}
</style>
<path id="XMLID_2_" class="st0" d="M47.7,26.5c2.7-2.7,2.8-7.2,0-9.9L35.6,4.3c-2.7-2.7-7.2-2.8-9.9,0L2.2,27.5
	c-2.7,2.7-2.8,7.2,0,9.9l9.1,9.2c0.3,0.3,0.6,0.4,0.9,0.6v0.1h0.5c0.1,0,0.1,0,0.2,0c0.1,0,0.1,0,0.2,0h36.6v-4.7H31.5L47.7,26.5z
	 M29,7.6c0.9-0.9,2.4-0.9,3.3,0l12.2,12.3c0.9,0.9,0.9,2.4,0,3.3L28.5,39L12.9,23.5L29,7.6z M5.5,34.2c-0.9-0.9-0.9-2.4,0-3.3l4-4
	l15.6,15.5l-0.3,0.3h-11L5.5,34.2z"/>
</svg>
