<?xml version="1.0" encoding="utf-8"?>
<!-- Generator: Adobe Illustrator 19.0.0, SVG Export Plug-In . SVG Version: 6.00 Build 0)  -->
<svg version="1.1" id="图层_1" xmlns="http://www.w3.org/2000/svg" xmlns:xlink="http://www.w3.org/1999/xlink" x="0px" y="0px"
	 viewBox="0 0 50 50" style="enable-background:new 0 0 50 50;" xml:space="preserve">
<g id="XMLID_2_">
	<path id="XMLID_4_" d="M27.7,3c-12.1,0-22,9.9-22,22l-1.4-1.2c-0.7-1-2-1.2-3-0.6c-1,0.7-1.2,2-0.6,3L6,31.7c0.4,0.6,1,0.9,1.7,0.9
		c0,0,0.1,0,0.1,0c0.6,0,1.2-0.3,1.6-0.8l5.5-6.6c0.8-0.9,0.6-2.3-0.3-3c-0.9-0.8-2.3-0.6-3,0.3l-1.7,2C10.2,15,18,7.3,27.7,7.3
		c9.8,0,17.7,8,17.7,17.7s-8,17.7-17.7,17.7c-4.5,0-8.8-1.7-12.1-4.7l-2.9,3.2c4.1,3.8,9.4,5.9,15,5.9c12.2,0,22-9.9,22-22
		S39.8,3,27.7,3z"/>
	<path id="XMLID_3_" d="M29.3,36.3V22.1l2.2,2.2c0.4,0.4,1,0.6,1.5,0.6c0.6,0,1.1-0.2,1.5-0.6c0.8-0.8,0.8-2.2,0-3l-5.8-5.8
		c-0.8-0.8-2.2-0.8-3,0l-5.8,5.8c-0.8,0.8-0.8,2.2,0,3s2.2,0.8,3,0l2.2-2.2v14.2H29.3z"/>
</g>
</svg>
