<?xml version="1.0" encoding="utf-8"?>
<!-- Generator: Adobe Illustrator 19.0.0, SVG Export Plug-In . SVG Version: 6.00 Build 0)  -->
<svg version="1.1" id="图层_1" xmlns="http://www.w3.org/2000/svg" xmlns:xlink="http://www.w3.org/1999/xlink" x="0px" y="0px"
	 viewBox="-1.9 15.8 20.1 20.1" style="enable-background:new -1.9 15.8 20.1 20.1;" xml:space="preserve">
<g id="XMLID_67_">
	<path id="XMLID_72_" d="M8.1,15.8c-5.5,0-10,4.5-10,10s4.5,10,10,10s10-4.5,10-10S13.6,15.8,8.1,15.8z M8.1,34.8c-5,0-9-4-9-9
		s4-9,9-9s9,4,9,9S13,34.8,8.1,34.8z"/>
	<path id="XMLID_68_" d="M8.8,24.3l1.3-5.4H5.9L7,24.3l0,0l-3,5.5l4.1,4.3l3.9-4.3L8.8,24.3L8.8,24.3z M8.8,19.9l-0.9,3.8l-0.8-3.8
		H8.8z M8,32.6l-2.8-3l2.4-4.4h0.7l2.5,4.4L8,32.6z"/>
</g>
</svg>
