<?xml version="1.0" encoding="utf-8"?>
<!-- Generator: Adobe Illustrator 19.0.0, SVG Export Plug-In . SVG Version: 6.00 Build 0)  -->
<svg version="1.1" id="图层_1" xmlns="http://www.w3.org/2000/svg" xmlns:xlink="http://www.w3.org/1999/xlink" x="0px" y="0px"
	 viewBox="-6.3 16.4 20 20" style="enable-background:new -6.3 16.4 20 20;" xml:space="preserve">
<g id="XMLID_56_">
	<path id="XMLID_60_" d="M3.7,16.4c-5.5,0-10,4.5-10,10s4.5,10,10,10s10-4.5,10-10S9.2,16.4,3.7,16.4z M3.7,35.4c-5,0-9-4-9-9
		s4-9,9-9s9,4,9,9S8.6,35.4,3.7,35.4z"/>
	<rect id="XMLID_59_" x="5.7" y="23.7" width="2" height="2"/>
	<rect id="XMLID_58_" x="-0.3" y="23.7" width="2" height="2"/>
	<path id="XMLID_57_" d="M4.1,28.9c-3.5-0.1-4.4,2.2-4.5,2.3l0.9,0.4c0,0,0.7-1.7,3.5-1.7c2.8,0.1,3.5,1.6,3.6,1.7l0.9-0.4
		C8.5,31.1,7.6,29,4.1,28.9z"/>
</g>
</svg>
