<?xml version="1.0" encoding="utf-8"?>
<!-- Generator: Adobe Illustrator 19.0.0, SVG Export Plug-In . SVG Version: 6.00 Build 0)  -->
<svg version="1.1" id="图层_1" xmlns="http://www.w3.org/2000/svg" xmlns:xlink="http://www.w3.org/1999/xlink" x="0px" y="0px"
	 viewBox="-13.4 15.6 19.8 19.8" style="enable-background:new -13.4 15.6 19.8 19.8;" xml:space="preserve">
<g id="XMLID_3_">
	<path id="XMLID_7_" d="M-3.5,22.5c-1.6,0-2.9,1.3-2.9,2.9s1.3,2.9,2.9,2.9s2.9-1.3,2.9-2.9C-0.6,23.9-1.9,22.5-3.5,22.5z"/>
	<path id="XMLID_4_" d="M-3.5,15.6c-5.5,0-9.9,4.4-9.9,9.9s4.4,9.9,9.9,9.9s9.9-4.4,9.9-9.9S2,15.6-3.5,15.6z M3.5,26.5H1.3
		c-0.1,0.6-0.4,1.2-0.7,1.7l1.5,1.5l-1.4,1.4l-1.5-1.5c-0.5,0.3-1.1,0.6-1.7,0.7v2.2h-2v-2.2c-0.6-0.1-1.2-0.4-1.7-0.7l-1.6,1.6
		l-1.4-1.4l1.6-1.6c-0.3-0.5-0.6-1.1-0.7-1.7h-2.2v-2h2.2c0.1-0.6,0.3-1.2,0.7-1.7l-1.6-1.6l1.4-1.4l1.5,1.5
		c0.6-0.3,1.2-0.5,1.8-0.7v-2.1h2v2.2c0.6,0.1,1.2,0.4,1.7,0.7l1.6-1.6l1.4,1.4l-1.6,1.6c0.3,0.5,0.6,1.1,0.7,1.7h2.2V26.5z"/>
</g>
</svg>
