<?xml version="1.0" encoding="utf-8"?>
<!-- Generator: Adobe Illustrator 19.0.0, SVG Export Plug-In . SVG Version: 6.00 Build 0)  -->
<svg version="1.1" id="图层_1" xmlns="http://www.w3.org/2000/svg" xmlns:xlink="http://www.w3.org/1999/xlink" x="0px" y="0px"
	 viewBox="0 0 19.4 19.4" style="enable-background:new 0 0 19.4 19.4;" xml:space="preserve">
<style type="text/css">
	.st0{fill:#040000;}
</style>
<g id="XMLID_3_">
	<path id="XMLID_32_" class="st0" d="M17.7,0.7h-3.5h-9H1.7c-0.8,0-1.5,0.7-1.5,1.5v15c0,0.8,0.7,1.5,1.5,1.5h16
		c0.8,0,1.5-0.7,1.5-1.5v-15C19.2,1.4,18.5,0.7,17.7,0.7z M14.2,1.7c0.3,0,0.5,0.2,0.5,0.5v4c0,0.3-0.2,0.5-0.5,0.5h-9
		c-0.3,0-0.5-0.2-0.5-0.5v-4c0-0.3,0.2-0.5,0.5-0.5H14.2z M18.2,17.2c0,0.3-0.2,0.5-0.5,0.5h-16c-0.3,0-0.5-0.2-0.5-0.5v-15
		c0-0.3,0.2-0.5,0.5-0.5h2.1C3.7,1.9,3.7,2,3.7,2.2v4c0,0.8,0.7,1.5,1.5,1.5h9c0.8,0,1.5-0.7,1.5-1.5v-4c0-0.2,0-0.3-0.1-0.5h2.1
		c0.3,0,0.5,0.2,0.5,0.5V17.2z"/>
	<path id="XMLID_4_" class="st0" d="M12.4,5.9c1,0,1.7-0.8,1.7-1.7s-0.8-1.7-1.7-1.7s-1.7,0.8-1.7,1.7S11.4,5.9,12.4,5.9z M12.4,3.5
		c0.4,0,0.7,0.3,0.7,0.7s-0.3,0.7-0.7,0.7c-0.4,0-0.7-0.3-0.7-0.7S12,3.5,12.4,3.5z"/>
</g>
</svg>
