<?xml version="1.0" encoding="utf-8"?>
<!-- Generator: Adobe Illustrator 21.0.0, SVG Export Plug-In . SVG Version: 6.00 Build 0)  -->
<svg version="1.1" id="图层_1" xmlns="http://www.w3.org/2000/svg" xmlns:xlink="http://www.w3.org/1999/xlink" x="0px" y="0px"
	 viewBox="0 0 50 50" style="enable-background:new 0 0 50 50;" xml:space="preserve">
<path d="M38.1,48.8c-0.5,0-1-0.1-1.3-0.3L27,41.6c-0.7,0.5-2.4,1.8-5.8,3.8c-0.9,0.6-1.8,0.7-2.5,0.4c-1-0.5-1.3-1.7-1.3-1.7l0-8.8
	c-1.9-1-13-7.1-14.9-8.9c-0.4-0.4-0.7-0.8-1-1.2c-0.3-0.5-0.4-1.1-0.2-1.7c0.2-0.6,0.6-1.1,1.1-1.3C9,19,41,3.4,43.7,1.6
	c1.8-1.2,3-1.1,3.7-0.7c0.7,0.3,1.1,1.1,1,1.9l0,0c-0.7,4.7-6.9,42.5-8,44.5C39.9,48.4,38.9,48.8,38.1,48.8z M27,40.4l10.3,7.2
	c0.1,0,1.5,0.7,2.3-0.8c0.9-1.8,7.1-38.4,7.9-44.2l0.5,0.1l-0.5-0.1c0-0.3-0.1-0.7-0.4-0.8c-0.7-0.3-1.6-0.1-2.7,0.7
	C41.5,4.2,9.5,19.9,3.1,23c-0.3,0.1-0.5,0.4-0.6,0.7c-0.1,0.3-0.1,0.6,0.1,0.9c0.2,0.3,0.5,0.6,0.8,1c1.9,1.9,14.8,8.8,14.9,8.9
	l0.3,0.1v9.2c0,0.2,0.2,0.8,0.7,1c0.5,0.2,1.1-0.1,1.5-0.3c4.2-2.5,5.9-3.9,5.9-4L27,40.4z"/>
<rect x="10" y="17.8" transform="matrix(0.6252 -0.7805 0.7805 0.6252 -2.4991 31.349)" width="42.8" height="1"/>
</svg>
