<?xml version="1.0" encoding="utf-8"?>
<!-- Generator: Adobe Illustrator 19.0.0, SVG Export Plug-In . SVG Version: 6.00 Build 0)  -->
<svg version="1.1" id="图层_1" xmlns="http://www.w3.org/2000/svg" xmlns:xlink="http://www.w3.org/1999/xlink" x="0px" y="0px"
	 viewBox="-7.3 16 21.4 21.4" style="enable-background:new -7.3 16 21.4 21.4;" xml:space="preserve">
<style type="text/css">
	.st0{fill:#040000;}
</style>
<g id="XMLID_56_">
	<path id="XMLID_60_" class="st0" d="M3.3,22.6c-2.2,0-4,1.8-4,4s1.8,4,4,4s4-1.8,4-4S5.5,22.6,3.3,22.6z M3.3,29.6
		c-1.7,0-3-1.3-3-3c0-1.7,1.3-3,3-3s3,1.3,3,3C6.3,28.3,5,29.6,3.3,29.6z"/>
	<path id="XMLID_57_" class="st0" d="M11.8,26.1L11.8,26.1c-0.1-1.9-0.9-3.8-2.2-5.2l1.5-1.4l-0.7-0.7l-1.5,1.5
		c-1.5-1.3-3.4-2.1-5.6-2.1l0.2,0.1v-2.1h-1v2.2l0.8-0.2c-2.1,0-4.1,0.8-5.6,2.1l-1.5-1.6l-0.6,0.8l1.4,1.4c-1.2,1.4-2,3.2-2.1,5.2
		h-2.2v1h2.2c0.1,2,0.9,3.8,2.1,5.1l-1.5,1.4l0.7,0.7l1.5-1.4c1.3,1.2,3,1.9,4.9,2.1v2h1v-2c2.1-0.1,3.9-0.9,5.4-2.1l1.5,1.4
		l0.7-0.7l-1.5-1.4c1.3-1.4,2.1-3.2,2.2-5.2v0.1H14v-1H11.8z M3.3,34.1c-4.1,0-7.5-3.4-7.5-7.5s3.4-7.5,7.5-7.5s7.5,3.4,7.5,7.5
		S7.5,34.1,3.3,34.1z"/>
</g>
</svg>
