<?xml version="1.0" encoding="utf-8"?>
<!-- Generator: Adobe Illustrator 19.0.0, SVG Export Plug-In . SVG Version: 6.00 Build 0)  -->
<svg version="1.1" id="图层_1" xmlns="http://www.w3.org/2000/svg" xmlns:xlink="http://www.w3.org/1999/xlink" x="0px" y="0px"
	 viewBox="0 0 50 50" style="enable-background:new 0 0 50 50;" xml:space="preserve">
<path id="XMLID_1_" d="M39.8,36.9c-2.1,0-3.9,1-5.1,2.5L15.7,25.6c0.1-0.5,0.2-0.9,0.2-1.4c0-0.2,0-0.4-0.1-0.5L37,12
	c1,0.7,2.3,1.1,3.6,1.1c3.5,0,6.4-2.9,6.4-6.4c0-3.5-2.9-6.4-6.4-6.4c-3.5,0-6.4,2.9-6.4,6.4c0,0.7,0.1,1.4,0.3,2L14.1,19.9
	c-1.2-1.3-2.8-2.1-4.7-2.1c-3.5,0-6.4,2.9-6.4,6.4c0,3.5,2.9,6.4,6.4,6.4c1.6,0,3-0.6,4.1-1.5l19.9,14.4c0.1,3.4,2.9,6.2,6.4,6.2
	c3.5,0,6.4-2.9,6.4-6.4C46.2,39.7,43.4,36.9,39.8,36.9z"/>
</svg>
