<?xml version="1.0" encoding="utf-8"?>
<!-- Generator: Adobe Illustrator 19.0.0, SVG Export Plug-In . SVG Version: 6.00 Build 0)  -->
<svg version="1.1" id="图层_1" xmlns="http://www.w3.org/2000/svg" xmlns:xlink="http://www.w3.org/1999/xlink" x="0px" y="0px"
	 viewBox="-10 12.7 19 19" style="enable-background:new -10 12.7 19 19;" xml:space="preserve">
<style type="text/css">
	.st0{fill:#040000;}
</style>
<path class="st0" d="M0.9,31.6c-0.7,0-1.4-0.3-1.9-0.8l-7.5-7.5c-1.5-1.4-1.4-2.9-1.4-3l0-5.1c0.3-1.9,1.6-2.4,2.3-2.5l0.1,0l0.1,0
	c0,0,3.3,0,5,0c1.2,0,2.3,0.7,2.9,1.3c0.1,0.1,0.2,0.1,0.2,0.2l7.4,7.4c0.5,0.5,0.8,1.2,0.8,1.9c0,0.7-0.3,1.4-0.8,1.9l-5.3,5.3
	C2.3,31.4,1.6,31.6,0.9,31.6z M-7.6,13.8c-0.1,0-1.1,0.1-1.4,1.5l0,5.1c0,0.1-0.1,1.2,1.2,2.3l0.1,0.1l7.4,7.4
	c0.7,0.7,1.8,0.7,2.5,0l5.3-5.3c0.3-0.3,0.5-0.8,0.5-1.2c0-0.5-0.2-0.9-0.5-1.2L0,14.9c0,0-0.1-0.1-0.1-0.1
	c-0.5-0.5-1.4-1.1-2.3-1.1c-1.6,0-4.5,0-5,0L-7.6,13.8z M-4.6,20.7c-1.4,0-2.5-1.1-2.5-2.5s1.1-2.5,2.5-2.5s2.5,1.1,2.5,2.5
	S-3.2,20.7-4.6,20.7z M-4.6,16.7c-0.8,0-1.5,0.7-1.5,1.5s0.7,1.5,1.5,1.5s1.5-0.7,1.5-1.5S-3.8,16.7-4.6,16.7z"/>
</svg>
