<?xml version="1.0" encoding="utf-8"?>
<!-- Generator: Adobe Illustrator 19.0.0, SVG Export Plug-In . SVG Version: 6.00 Build 0)  -->
<svg version="1.1" id="图层_1" xmlns="http://www.w3.org/2000/svg" xmlns:xlink="http://www.w3.org/1999/xlink" x="0px" y="0px"
	 viewBox="-5.3 18.7 18 18" style="enable-background:new -5.3 18.7 18 18;" xml:space="preserve">
<style type="text/css">
	.st0{fill:#040000;}
</style>
<path id="XMLID_56_" class="st0" d="M12,27.5l-7.4-7.4C4.5,20,4.5,20,4.4,19.9c-0.7-0.5-1.6-1.2-2.7-1.2c-1.7,0-5,0-5,0h-0.1
	c0,0-1.5,0-1.9,2v5.2c0,0-0.1,1.3,1.3,2.6c0,0,0,0,0,0.1L3.4,36c0.9,0.9,2.3,0.9,3.2,0l5.4-5.3C12.8,29.8,12.8,28.4,12,27.5z
	 M-0.4,25.7c-1.1,0-2-0.9-2-2s0.9-2,2-2s2,0.9,2,2S0.7,25.7-0.4,25.7z"/>
</svg>
