<?xml version="1.0" encoding="utf-8"?>
<!-- Generator: Adobe Illustrator 19.0.0, SVG Export Plug-In . SVG Version: 6.00 Build 0)  -->
<svg version="1.1" id="图层_1" xmlns="http://www.w3.org/2000/svg" xmlns:xlink="http://www.w3.org/1999/xlink" x="0px" y="0px"
	 viewBox="2.8 0.8 48.2 48.2" style="enable-background:new 2.8 0.8 48.2 48.2;" xml:space="preserve">
<g id="XMLID_2_">
	<path id="XMLID_4_" d="M50.9,24.9c0,0-2.1-11.2-12.2-13.3c0,0-1.1,1.3-3.1,2.2c0,0,3.9,0.5,2.8,2.4c0,0-0.4,1.6-4.1-0.2
		c0,0-2.9-1.5-7.8-0.6c-3.6,0.6-2.9-3.3,0-2.3c0,0-2.3-2-2.2-3.4c0,0-1.4,0-1.7,0.7c0,0-6.1-3.1-9.8-2.2c0,0-2.9,0.3-2.6,1.8
		c0,0,0.1,0.4,0.3,0.9c0.3,0.5,1.6,3.1,1.9,4.1c0,0-4.8,3.7-5.3,7.7c0,0-2-0.8-2.6-0.6s-1.4,0.5-1.7,1.6v6.2c0,0,1,1.5,4.3,2.6
		c0,0,0.7,5.4,8.7,9.6c0,0-0.7,5.6,0.4,6.4c0,0,2,0.3,6.6,0.1c0,0,1.7,0.4,2.4-3.4c0,0,5.7,0.6,8.4-0.2l0.2,2.9c0,0,0.3,0.9,1.4,1
		c1.1,0,5.6,0,5.6,0S51.3,38.7,50.9,24.9z M16,24.9c-1.1,0-2-0.9-2-2s0.9-2,2-2s2,0.9,2,2S17.1,24.9,16,24.9z"/>
	<circle id="XMLID_3_" cx="31.5" cy="6.4" r="5.5"/>
</g>
</svg>
