<?xml version="1.0" encoding="utf-8"?>
<!-- Generator: Adobe Illustrator 19.0.0, SVG Export Plug-In . SVG Version: 6.00 Build 0)  -->
<svg version="1.1" id="图层_1" xmlns="http://www.w3.org/2000/svg" xmlns:xlink="http://www.w3.org/1999/xlink" x="0px" y="0px"
	 viewBox="0 0 21.2 21.2" style="enable-background:new 0 0 21.2 21.2;" xml:space="preserve">
<g id="XMLID_2_">
	<path id="XMLID_4_" d="M9.3,17.5C6.5,17,4.3,14.8,3.7,12c0-0.1-0.1-0.3-0.1-0.4h1.7l-2.7-4l-2.7,4h1.7c0,0.4,0.1,0.8,0.2,1.4
		c0.9,3.4,3.9,6.1,7.4,6.6c3.7,0.5,7.1-1.3,8.9-4.2l-1.8-0.9C14.9,16.7,12.3,18,9.3,17.5z"/>
	<path id="XMLID_3_" d="M19.5,9.8c0-0.5-0.1-1-0.2-1.5c-0.9-3.4-3.9-6.1-7.4-6.5C8.1,1.2,4.8,3,3,5.8l1.8,0.9c1.5-2.2,4.1-3.5,7.1-3
		c2.8,0.5,5.1,2.7,5.6,5.5c0,0.2,0.1,0.4,0.2,0.6h-1.7l2.7,4l2.7-4H19.5z"/>
</g>
</svg>
