<?xml version="1.0" encoding="utf-8"?>
<!-- Generator: Adobe Illustrator 19.0.0, SVG Export Plug-In . SVG Version: 6.00 Build 0)  -->
<svg version="1.1" id="图层_1" xmlns="http://www.w3.org/2000/svg" xmlns:xlink="http://www.w3.org/1999/xlink" x="0px" y="0px"
	 viewBox="0 0 50 50" style="enable-background:new 0 0 50 50;" xml:space="preserve">
<style type="text/css">
	.st0{fill:#040000;}
</style>
<g id="XMLID_2_">
	<path id="XMLID_4_" class="st0" d="M30.8,0H6.9C4.8,0,3.1,1.7,3.1,3.8v42.4c0,2.1,1.7,3.8,3.8,3.8h36.1c2.1,0,3.8-1.7,3.8-3.8v-31
		L30.8,0z M45.3,46.2c0,1.3-1,2.3-2.3,2.3H6.9c-1.3,0-2.3-1-2.3-2.3V3.8c0-1.3,1-2.3,2.3-2.3h23.3l15.1,14.3V46.2z"/>
	<polygon id="XMLID_3_" class="st0" points="15.9,25 22,25 22,37.1 28,37.1 28,25 34.1,25 25,12.9 	"/>
</g>
</svg>
