<?xml version="1.0" encoding="utf-8"?>
<!-- Generator: Adobe Illustrator 19.0.0, SVG Export Plug-In . SVG Version: 6.00 Build 0)  -->
<svg version="1.1" id="图层_1" xmlns="http://www.w3.org/2000/svg" xmlns:xlink="http://www.w3.org/1999/xlink" x="0px" y="0px"
	 viewBox="-10 12.7 20.5 20.5" style="enable-background:new -10 12.7 20.5 20.5;" xml:space="preserve">
<style type="text/css">
	.st0{fill:#040000;}
</style>
<path class="st0" d="M7.5,33.2H-7c-1,0-1.8-0.8-1.8-1.8V14.5c0-1,0.8-1.8,1.8-1.8h9.8L9.3,19v12.4C9.3,32.4,8.5,33.2,7.5,33.2z
	 M-7,13.7c-0.4,0-0.8,0.4-0.8,0.8v16.9c0,0.4,0.3,0.8,0.8,0.8H7.5c0.4,0,0.8-0.3,0.8-0.8v-12l-5.9-5.8H-7z M2,29.6h-3.4v-4.9h-2.9
	l4.7-6.2l4.7,6.2H2V29.6z M-0.5,28.6H1v-4.9h1.9l-2.7-3.5l-2.7,3.5h1.9V28.6z"/>
</svg>
