<svg xmlns="http://www.w3.org/2000/svg" xmlns:xlink="http://www.w3.org/1999/xlink" preserveAspectRatio="xMidYMid" width="50" height="50" viewBox="0 0 50 50">
  <defs>
    <style>
      .cls-1 {
        fill: #5671a8;
        filter: url(#color-overlay-1);
        fill-rule: evenodd;
      }
    </style>

    <filter id="color-overlay-1" filterUnits="userSpaceOnUse">
      <feFlood/>
      <feComposite operator="in" in2="SourceGraphic"/>
      <feBlend in2="SourceGraphic" result="solidFill"/>
    </filter>
  </defs>
  <path d="M43.400,39.857 L27.300,39.857 L25.000,39.857 L6.600,39.857 C6.600,39.857 2.000,40.302 2.000,35.286 C2.000,31.359 2.000,30.781 2.000,30.714 C2.000,30.714 1.945,26.143 6.600,26.143 L13.500,23.857 C13.500,23.857 18.100,22.422 18.100,21.572 C18.100,21.572 18.100,21.558 18.100,21.556 C15.902,19.912 14.308,17.513 13.735,14.737 C13.654,14.732 13.583,14.714 13.500,14.714 L13.731,14.714 C13.580,13.976 13.500,13.211 13.500,12.429 C13.500,6.117 18.649,1.000 25.000,1.000 C31.351,1.000 36.500,6.117 36.500,12.429 C36.500,13.211 36.420,13.976 36.269,14.714 L36.500,14.714 C36.417,14.714 36.346,14.732 36.265,14.737 C35.692,17.513 34.098,19.912 31.900,21.556 C31.900,21.558 31.900,21.572 31.900,21.572 C31.900,22.137 36.500,23.857 36.500,23.857 L43.400,26.143 C48.055,26.143 48.000,30.714 48.000,30.714 C48.000,30.781 48.000,31.359 48.000,35.286 C48.000,40.302 43.400,39.857 43.400,39.857 ZM3.000,44.429 L47.000,44.429 C47.552,44.429 48.000,44.876 48.000,45.429 L48.000,48.000 C48.000,48.552 47.552,49.000 47.000,49.000 L3.000,49.000 C2.448,49.000 2.000,48.552 2.000,48.000 L2.000,45.429 C2.000,44.876 2.448,44.429 3.000,44.429 Z" class="cls-1"/>
</svg>
