<svg xmlns="http://www.w3.org/2000/svg" xmlns:xlink="http://www.w3.org/1999/xlink" preserveAspectRatio="xMidYMid" width="50" height="50" viewBox="0 0 50 50">
  <defs>
    <style>
      .cls-1 {
        fill: #939599;
        fill-rule: evenodd;
      }
    </style>
  </defs>
  <path d="M45.375,50.000 L3.692,50.000 C3.347,50.000 3.067,49.720 3.067,49.375 L3.067,46.298 C3.067,45.952 3.347,45.673 3.692,45.673 L45.375,45.673 C45.720,45.673 46.000,45.952 46.000,46.298 L46.000,49.375 C46.000,49.720 45.720,50.000 45.375,50.000 ZM3.000,32.760 C3.000,31.655 3.895,30.760 5.000,30.760 L17.452,30.760 L21.096,16.449 C18.423,15.144 16.572,12.358 16.572,9.122 C16.572,4.636 20.121,1.000 24.500,1.000 C28.879,1.000 32.428,4.636 32.428,9.122 C32.428,12.154 30.803,14.793 28.400,16.189 L31.956,30.760 L44.000,30.760 C45.105,30.760 46.000,31.655 46.000,32.760 L46.000,41.478 L3.000,41.478 L3.000,32.760 Z" class="cls-1"/>
</svg>
