<?xml version="1.0" encoding="utf-8"?>
<!-- Generator: Adobe Illustrator 19.0.0, SVG Export Plug-In . SVG Version: 6.00 Build 0)  -->
<svg version="1.1" id="图层_1" xmlns="http://www.w3.org/2000/svg" xmlns:xlink="http://www.w3.org/1999/xlink" x="0px" y="0px"
	 viewBox="-4.8 17.9 16.9 16.9" style="enable-background:new -4.8 17.9 16.9 16.9;" xml:space="preserve">
<style type="text/css">
	.st0{fill:#040000;}
</style>
<g id="XMLID_56_">
	<path id="XMLID_60_" class="st0" d="M10.2,26c0-3.6-2.9-6.5-6.5-6.5s-6.5,2.9-6.5,6.5c0,1.7,0.7,3.3,1.8,4.5l-2.4,2.3l0.7,0.7
		l2.4-2.4c1.1,0.9,2.5,1.4,4,1.4s2.9-0.5,4-1.3l2.4,2.3l0.7-0.7l-2.4-2.3C9.5,29.4,10.2,27.8,10.2,26z M3.7,31.5
		c-3,0-5.5-2.5-5.5-5.5s2.5-5.5,5.5-5.5S9.2,23,9.2,26C9.2,29.1,6.8,31.5,3.7,31.5z"/>
	
		<rect id="XMLID_59_" x="-5" y="20.5" transform="matrix(-0.7071 0.7071 -0.7071 -0.7071 9.8395 37.9219)" class="st0" width="4.1" height="1"/>
	
		<rect id="XMLID_58_" x="9.9" y="18.9" transform="matrix(-0.7071 0.7071 -0.7071 -0.7071 32.5578 28.4606)" class="st0" width="1" height="4.1"/>
	<polygon id="XMLID_57_" class="st0" points="4.2,22.8 3.2,22.8 3.2,26.8 7.2,26.8 7.2,25.8 4.2,25.8 	"/>
</g>
</svg>
